<svg width="92" height="75" viewBox="0 0 92 75" fill="none" xmlns="http://www.w3.org/2000/svg">
<path d="M6.88054 42.6011C6.52939 40.9193 6.3448 39.1771 6.3448 37.3912C6.3448 23.4404 17.5968 12.1308 31.4764 12.1308C34.0201 12.1308 36.4752 12.5124 38.7892 13.2183C45.0439 5.24059 54.7427 0.116699 65.6331 0.116699C83.1143 0.116699 97.5282 13.3163 99.5481 30.3412C100.039 30.3125 100.534 30.2959 101.032 30.2959C113.543 30.2959 123.917 39.4863 125.841 51.517C126.722 51.2983 127.642 51.1806 128.59 51.1806C134.892 51.1806 140 56.3151 140 62.6487C140 68.9823 134.892 74.1167 128.59 74.1167H17.4647C7.81845 74.1167 0 66.2566 0 56.5624C0 50.8669 2.69969 45.8048 6.88203 42.5981L6.88054 42.6011Z" fill="white" fill-opacity="0.5"/>
<path d="M65.6328 0.616699C54.9033 0.616778 45.3471 5.66438 39.1826 13.5269C39.0552 13.6893 38.841 13.7569 38.6436 13.6968C36.3761 13.0051 33.9699 12.6304 31.4766 12.6304C17.8755 12.6304 6.84478 23.7141 6.84473 37.3911C6.84473 39.1344 7.02509 40.8346 7.36621 42.4761C7.39454 42.5886 7.3846 42.7109 7.33008 42.8208L7.32812 42.8237C7.29122 42.8979 7.23703 42.959 7.17285 43.0054C3.11685 46.1217 0.500135 51.0343 0.5 56.562C0.5 65.9825 8.09715 73.6167 17.4648 73.6167H128.591C134.613 73.6165 139.5 68.7085 139.5 62.6489C139.5 56.5892 134.613 51.6804 128.591 51.6802C127.684 51.6802 126.804 51.7933 125.962 52.0024C125.826 52.0362 125.682 52.0113 125.565 51.9341C125.449 51.8569 125.37 51.7343 125.348 51.5962C123.462 39.8023 113.292 30.7964 101.032 30.7964C100.545 30.7964 100.06 30.8122 99.5771 30.8403C99.3131 30.8557 99.0829 30.6626 99.0518 30.3999C97.0611 13.6217 82.8556 0.616699 65.6328 0.616699Z" stroke="black" stroke-opacity="0.5" stroke-miterlimit="10" stroke-linejoin="round"/>
</svg>
