<svg width="107" height="71" viewBox="0 0 107 71" fill="none" xmlns="http://www.w3.org/2000/svg">
<path d="M-18.5126 40.3046C-18.8437 38.7137 -19.0178 37.0657 -19.0178 35.3764C-19.0178 22.1797 -8.40874 11.4814 4.67779 11.4814C7.07607 11.4814 9.39085 11.8423 11.5727 12.5101C17.47 4.96362 26.6146 0.116699 36.8826 0.116699C53.3649 0.116699 66.9552 12.6028 68.8596 28.7074C69.3223 28.6803 69.7892 28.6646 70.259 28.6646C82.0551 28.6646 91.8364 37.3582 93.6503 48.7386C94.4809 48.5317 95.3482 48.4204 96.2424 48.4204C102.184 48.4204 107 53.2773 107 59.2686C107 65.2598 102.184 70.1167 96.2424 70.1167H-8.53326C-17.6283 70.1167 -25 62.6815 -25 53.5113C-25 48.1236 -22.4546 43.3352 -18.5112 40.3018L-18.5126 40.3046Z" fill="white" fill-opacity="0.5"/>
<path d="M36.8828 0.616699C26.7763 0.616699 17.7741 5.3867 11.9668 12.8179C11.8394 12.9809 11.6247 13.0482 11.4268 12.9878C9.29156 12.3343 7.02557 11.981 4.67773 11.981C-8.12868 11.981 -18.5176 22.452 -18.5176 35.3765C-18.5176 37.0217 -18.3488 38.6262 -18.0283 40.1753C-17.9986 40.2888 -18.0085 40.4127 -18.0635 40.5239L-18.0645 40.5259C-18.1024 40.6027 -18.1586 40.6664 -18.2256 40.7134C-22.0393 43.6564 -24.5 48.2933 -24.5 53.5112C-24.5 62.4093 -17.3481 69.6167 -8.5332 69.6167H96.2422C101.903 69.6167 106.5 64.9879 106.5 59.269C106.5 53.55 101.903 48.9204 96.2422 48.9204C95.3898 48.9204 94.5633 49.0269 93.7715 49.2241C93.6356 49.258 93.4909 49.233 93.374 49.1558C93.2573 49.0785 93.1783 48.9551 93.1562 48.8169C91.3797 37.6725 81.802 29.1646 70.2588 29.1646C69.8002 29.1646 69.343 29.1799 68.8887 29.2065C68.6246 29.2219 68.3944 29.0289 68.3633 28.7661C66.4878 12.907 53.1053 0.616803 36.8828 0.616699Z" stroke="black" stroke-opacity="0.5" stroke-miterlimit="10" stroke-linejoin="round"/>
</svg>
