<svg width="70" height="71" viewBox="0 0 70 71" fill="none" xmlns="http://www.w3.org/2000/svg">
<circle cx="35" cy="35.1167" r="34.5" fill="#1A47A9" stroke="#335CB3"/>
<g clip-path="url(#clip0_325_617)">
<path d="M36 17.1167C26.059 17.1167 18 25.1757 18 35.1167C18 43.558 23.8118 50.6413 31.6519 52.5868V40.6175H27.9403V35.1167H31.6519V32.7465C31.6519 26.62 34.4246 23.7803 40.4395 23.7803C41.58 23.7803 43.5478 24.0042 44.3527 24.2274V29.2134C43.9279 29.1688 43.1899 29.1465 42.2734 29.1465C39.3221 29.1465 38.1816 30.2646 38.1816 33.1713V35.1167H44.0611L43.051 40.6175H38.1816V52.9849C47.0945 51.9085 54.0007 44.3197 54.0007 35.1167C54 25.1757 45.941 17.1167 36 17.1167Z" fill="white"/>
</g>
<defs>
<clipPath id="clip0_325_617">
<rect width="36" height="36" fill="white" transform="translate(18 17.1167)"/>
</clipPath>
</defs>
</svg>
