<svg width="70" height="71" viewBox="0 0 70 71" fill="none" xmlns="http://www.w3.org/2000/svg">
<circle cx="35" cy="35.1167" r="34.5" fill="#1A47A9" stroke="#335CB3"/>
<path d="M52.6314 27.2166C52.6314 27.2166 52.2701 24.6656 51.1572 23.5455C49.748 22.0713 48.1727 22.0641 47.45 21.9773C42.2758 21.6016 34.5072 21.6016 34.5072 21.6016H34.4928C34.4928 21.6016 26.7242 21.6016 21.55 21.9773C20.8273 22.0641 19.252 22.0713 17.8428 23.5455C16.7299 24.6656 16.3758 27.2166 16.3758 27.2166C16.3758 27.2166 16 30.2156 16 33.2074V36.0113C16 39.0031 16.3686 42.0021 16.3686 42.0021C16.3686 42.0021 16.7299 44.5531 17.8355 45.6732C19.2447 47.1475 21.0947 47.0969 21.9186 47.2559C24.8814 47.5377 34.5 47.6244 34.5 47.6244C34.5 47.6244 42.2758 47.61 47.45 47.2414C48.1727 47.1547 49.748 47.1475 51.1572 45.6732C52.2701 44.5531 52.6314 42.0021 52.6314 42.0021C52.6314 42.0021 53 39.0104 53 36.0113V33.2074C53 30.2156 52.6314 27.2166 52.6314 27.2166ZM30.6771 39.415V29.016L40.6715 34.2336L30.6771 39.415Z" fill="white"/>
</svg>
