<svg width="80" height="80" viewBox="0 0 80 80" fill="none" xmlns="http://www.w3.org/2000/svg">
<circle cx="40" cy="40" r="40" fill="#F2F5FA"/>
<path d="M48.6602 49.1211H46.5942C46.3822 52.3228 43.7115 54.8633 40.457 54.8633C37.2025 54.8633 34.5318 52.3228 34.3199 49.1211H32.2539C26.5999 49.1211 22 53.721 22 59.375V60.7695C22 61.4491 22.5509 62 23.2305 62H57.6836C58.3631 62 58.9141 61.4491 58.9141 60.7695V59.375C58.9141 53.721 54.3142 49.1211 48.6602 49.1211ZM29.793 38.457V33.5352C28.4338 33.5352 27.332 34.6369 27.332 35.9961C27.332 37.3553 28.4338 38.457 29.793 38.457ZM43.6886 28.1534C44.1319 27.71 44.8377 27.671 45.3273 28.0626L49.0918 31.0742H51.1211V30.6641C51.1211 24.7745 46.3466 20 40.457 20C34.5674 20 29.793 24.7745 29.793 30.6641V31.0742H36.6372C37.9468 31.0742 39.2435 30.8163 40.4534 30.3151C41.6633 29.814 42.7626 29.0794 43.6886 28.1534Z" fill="#3978E9"/>
<path d="M36.7656 48.0516V48.7106C36.7656 50.7493 38.4183 52.402 40.457 52.402C42.4958 52.402 44.1484 50.7493 44.1484 48.7106V48.0516C42.9976 48.4775 41.7541 48.7106 40.457 48.7106C39.16 48.7106 37.9164 48.4776 36.7656 48.0516ZM40.0469 42.5583C40.0469 41.8787 40.5978 41.3278 41.2773 41.3278H47.9769C48.416 40.3229 48.6602 39.2134 48.6602 38.0466V33.8801L44.612 30.6416C42.379 32.5146 39.5863 33.5348 36.6369 33.5348H32.2539V38.0466C32.2539 42.577 35.9265 46.2497 40.457 46.2497C42.7515 46.2497 44.8257 45.3072 46.3145 43.7888H41.2773C40.5978 43.7888 40.0469 43.2378 40.0469 42.5583Z" fill="#3978E9"/>
<path d="M51.123 38.457H52.3535V39.2773C52.3535 40.4081 51.4335 41.3281 50.3027 41.3281H47.9789C47.5788 42.2426 47.0154 43.0765 46.3164 43.7891H50.3027C52.7905 43.7891 54.8144 41.7651 54.8144 39.2773V35.9961C54.8144 34.6369 53.7127 33.5352 52.3535 33.5352H51.123V38.457Z" fill="#3978E9"/>
</svg>
