<svg width="80" height="80" viewBox="0 0 80 80" fill="none" xmlns="http://www.w3.org/2000/svg">
<circle cx="40" cy="40" r="40" fill="#F2F5FA"/>
<g clip-path="url(#clip0_13_1442)">
<path d="M45.0735 42.1396C44.236 39.9313 42.7023 38.0556 40.7044 36.7962C38.7064 35.5368 36.3527 34.9621 33.9991 35.159C31.6455 35.3558 29.42 36.3136 27.6591 37.8875C25.8981 39.4614 24.6974 41.5658 24.2385 43.8826C23.7796 46.1994 24.0874 48.6026 25.1155 50.7289C26.1435 52.8552 27.8359 54.589 29.9367 55.6682C32.0375 56.7474 34.4326 57.1133 36.7598 56.7106C39.087 56.3079 41.2198 55.1585 42.8359 53.4362C42.6081 52.919 42.4367 52.3788 42.3246 51.825C41.038 53.4591 39.2463 54.6208 37.2294 55.1286C35.2125 55.6364 33.0842 55.4617 31.1772 54.6316C29.2702 53.8016 27.692 52.3631 26.6892 50.5409C25.6865 48.7188 25.3157 46.6158 25.6349 44.5606C25.9541 42.5055 26.9453 40.614 28.4535 39.1818C29.9617 37.7497 31.9019 36.8577 33.9708 36.6452C36.0398 36.4327 38.1208 36.9117 39.8886 38.0073C41.6565 39.1029 43.0114 40.7534 43.7418 42.7008L45.0735 42.1396Z" fill="#3978E9"/>
<path d="M34.9296 38.0393C33.4992 38.0387 32.095 38.4233 30.8646 39.1528C29.6341 39.8822 28.6228 40.9295 27.9368 42.1847C27.2507 43.4398 26.9154 44.8566 26.9659 46.2861C27.0164 47.7156 27.4509 49.1052 28.2238 50.3088C28.9967 51.5124 30.0795 52.4857 31.3584 53.1265C32.6372 53.7672 34.0651 54.0518 35.4919 53.9502C36.9187 53.8487 38.2918 53.3648 39.4671 52.5494C40.6423 51.7341 41.5763 50.6172 42.171 49.3163V43.8324C42.1713 43.7298 42.1936 43.6284 42.2363 43.5352C42.279 43.4419 42.3412 43.3588 42.4187 43.2915C41.8576 41.755 40.8387 40.4277 39.4995 39.4885C38.1604 38.5493 36.5653 38.0435 34.9296 38.0393ZM34.9296 45.2807C35.6337 45.2798 36.3139 45.5359 36.8426 46.001C37.3712 46.466 37.712 47.108 37.8009 47.8065C37.8897 48.505 37.7207 49.2118 37.3253 49.7945C36.93 50.3771 36.3356 50.7955 35.6538 50.971V52.5221H34.2055V50.971C33.5855 50.8109 33.0361 50.4499 32.643 49.9444C32.25 49.439 32.0355 48.8175 32.0331 48.1772H33.4814C33.4814 48.4637 33.5663 48.7437 33.7254 48.9818C33.8846 49.22 34.1108 49.4056 34.3754 49.5153C34.64 49.6249 34.9312 49.6536 35.2122 49.5977C35.4931 49.5418 35.7512 49.4039 35.9537 49.2013C36.1563 48.9988 36.2942 48.7407 36.3501 48.4598C36.406 48.1788 36.3773 47.8876 36.2677 47.623C36.158 47.3584 35.9724 47.1322 35.7342 46.973C35.4961 46.8139 35.2161 46.729 34.9296 46.729C34.2255 46.7298 33.5453 46.4737 33.0167 46.0086C32.488 45.5436 32.1473 44.9016 32.0584 44.2031C31.9695 43.5047 32.1386 42.7978 32.5339 42.2151C32.9292 41.6325 33.5236 41.2142 34.2055 41.0387V39.4876H35.6538V41.0387C36.2737 41.1987 36.8232 41.5597 37.2162 42.0652C37.6093 42.5707 37.8238 43.1921 37.8262 43.8324H36.3779C36.3779 43.546 36.293 43.2659 36.1338 43.0278C35.9747 42.7896 35.7485 42.604 35.4839 42.4944C35.2192 42.3848 34.928 42.3561 34.6471 42.412C34.3661 42.4678 34.1081 42.6058 33.9055 42.8083C33.703 43.0109 33.5651 43.2689 33.5092 43.5499C33.4533 43.8308 33.482 44.122 33.5916 44.3866C33.7012 44.6513 33.8868 44.8775 34.125 45.0366C34.3632 45.1957 34.6432 45.2807 34.9296 45.2807ZM28.4124 27.9014H41.4469V29.3496H28.4124V27.9014Z" fill="#3978E9"/>
<path d="M43.5743 54.7547C41.6887 56.6162 39.2525 57.8192 36.6282 58.1849C34.0039 58.5505 31.3316 58.0592 29.009 56.7839C26.6864 55.5087 24.8374 53.5178 23.7373 51.1073C22.6371 48.6968 22.3445 45.9956 22.903 43.4055C23.4615 40.8153 24.8412 38.4746 26.8369 36.7317C28.8326 34.9887 31.3376 33.9365 33.9794 33.7317C36.6211 33.5269 39.2584 34.1804 41.4989 35.5949C43.7394 37.0095 45.4634 39.1095 46.4144 41.5826L50.8621 39.7288V38.7635C50.8596 36.6517 50.0196 34.6271 48.5263 33.1338C47.033 31.6405 45.0084 30.8005 42.8965 30.798H26.9655C24.8537 30.8005 22.8291 31.6405 21.3358 33.1338C19.8425 34.6271 19.0025 36.6517 19 38.7635V53.2463C19.0025 55.3581 19.8425 57.3827 21.3358 58.876C22.8291 60.3693 24.8537 61.2093 26.9655 61.2118H42.8965C44.7602 61.2173 46.5661 60.565 47.9959 59.3696L44.5056 55.8793C44.1616 55.5336 43.8499 55.1571 43.5743 54.7547ZM41.7249 26.4532L44.276 21.3502C43.691 21.8514 42.9427 22.1211 42.1724 22.1084C41.3317 22.1155 40.5203 21.7995 39.9059 21.2257C39.7278 21.0464 39.5161 20.9042 39.2829 20.8072C39.0497 20.7101 38.7996 20.6602 38.547 20.6602C38.2944 20.6602 38.0443 20.7101 37.8111 20.8072C37.5779 20.9042 37.3662 21.0464 37.1882 21.2257C36.5717 21.7935 35.7641 22.1088 34.926 22.1088C34.0878 22.1088 33.2803 21.7935 32.6638 21.2257C32.4861 21.0466 32.2748 20.9044 32.0419 20.8075C31.8091 20.7105 31.5593 20.6605 31.3071 20.6605C31.0548 20.6605 30.8051 20.7105 30.5722 20.8075C30.3394 20.9044 30.1281 21.0466 29.9504 21.2257C29.3375 21.7982 28.5284 22.1141 27.6897 22.1084C26.9211 22.1214 26.1742 21.853 25.5897 21.3538L28.1372 26.4532H41.7249Z" fill="#3978E9"/>
<path d="M43.6211 44.3155V50.2462C43.6188 51.1025 43.7862 51.9508 44.1139 52.742C44.4415 53.5331 44.9228 54.2515 45.5299 54.8554L51.5866 60.9121L57.6433 54.8554C58.2504 54.2515 58.7317 53.5331 59.0594 52.742C59.387 51.9508 59.5545 51.1025 59.5522 50.2462V44.3155L51.5866 40.9961L43.6211 44.3155ZM58.3827 44.6124C58.5146 44.6675 58.6272 44.7603 58.7065 44.8792C58.7857 44.9982 58.828 45.1379 58.828 45.2808V50.2462C58.83 51.0073 58.6812 51.7613 58.3901 52.4645C58.099 53.1678 57.6714 53.8064 57.1321 54.3434L52.0986 59.3762C51.9628 59.5119 51.7787 59.5882 51.5866 59.5882C51.3946 59.5882 51.2105 59.5119 51.0747 59.3762L46.0419 54.3434C45.5024 53.8064 45.0747 53.1679 44.7835 52.4646C44.4923 51.7614 44.3433 51.0074 44.3453 50.2462V45.2808C44.3452 45.1379 44.3875 44.9982 44.4668 44.8792C44.546 44.7603 44.6587 44.6675 44.7906 44.6124L51.3078 41.8969C51.3962 41.8601 51.4909 41.8411 51.5866 41.8411C51.6823 41.8411 51.7771 41.8601 51.8654 41.8969L58.3827 44.6124Z" fill="#3978E9"/>
<path d="M45.795 45.7638V50.2462C45.7935 50.817 45.9052 51.3825 46.1236 51.9098C46.342 52.4372 46.6627 52.9161 47.0673 53.3187L51.5881 57.8403L56.1089 53.3187C56.5135 52.9161 56.8342 52.4372 57.0526 51.9098C57.271 51.3825 57.3827 50.817 57.3812 50.2462V45.7638L51.5881 43.3495L45.795 45.7638ZM56.1965 48.2136L52.1001 52.31C51.9643 52.4458 51.7801 52.522 51.5881 52.522C51.3961 52.522 51.2119 52.4458 51.0761 52.31L49.0275 50.2622L50.0515 49.2382L51.5881 50.7741L55.1726 47.1896L56.1965 48.2136ZM58.9381 27.3656C58.8099 27.5302 58.6464 27.6637 58.4597 27.7565C58.2729 27.8493 58.0676 27.8988 57.8591 27.9015C57.6509 27.8972 57.4462 27.847 57.2597 27.7543C57.0731 27.6617 56.9094 27.529 56.7802 27.3656C56.5194 27.0783 56.2014 26.8487 55.8466 26.6916C55.4918 26.5344 55.108 26.4533 54.72 26.4533C54.332 26.4533 53.9482 26.5344 53.5934 26.6916C53.2386 26.8487 52.9206 27.0783 52.6598 27.3656C52.5306 27.529 52.3668 27.6617 52.1803 27.7543C51.9938 27.847 51.7891 27.8972 51.5809 27.9015C51.3734 27.897 51.1694 27.8474 50.9831 27.7561C50.7968 27.6648 50.6326 27.5341 50.5019 27.3729C50.2422 27.0846 49.9251 26.8538 49.5709 26.6954C49.2168 26.537 48.8333 26.4545 48.4453 26.4532C47.9955 26.447 47.5515 26.5568 47.1564 26.7718C47.1853 26.7212 47.2143 26.6705 47.236 26.627C47.4605 26.1925 47.5981 25.9246 48.0688 25.7581C48.2651 25.6897 48.4742 25.6659 48.6809 25.6885C48.8876 25.711 49.0866 25.7793 49.2636 25.8884C49.6063 26.0713 49.9837 26.1799 50.3712 26.2071C50.7587 26.2343 51.1476 26.1794 51.5125 26.0462C51.8774 25.913 52.2101 25.7043 52.4889 25.4338C52.7677 25.1633 52.9863 24.837 53.1305 24.4763C53.355 24.0418 53.4926 23.7812 53.9633 23.6146C54.1596 23.546 54.3687 23.5222 54.5754 23.5447C54.7821 23.5673 54.9812 23.6357 55.1581 23.745C55.5017 23.9261 55.8794 24.0333 56.267 24.0596C56.6545 24.0859 57.0433 24.0308 57.4082 23.8977C57.7731 23.7647 58.1062 23.5568 58.3859 23.2873C58.6656 23.0177 58.8858 22.6926 59.0322 22.3329C59.2567 21.8984 59.3943 21.6305 59.865 21.4639L59.3726 20.1025C59.0082 20.2359 58.6756 20.4439 58.3963 20.7132C58.117 20.9826 57.897 21.3073 57.7505 21.6667C57.5188 22.1012 57.3884 22.3618 56.9105 22.5356C56.7142 22.604 56.5051 22.6278 56.2984 22.6052C56.0917 22.5827 55.8927 22.5144 55.7157 22.4053C55.3721 22.2242 54.9943 22.117 54.6068 22.0907C54.2193 22.0644 53.8305 22.1195 53.4656 22.2525C53.1006 22.3855 52.7676 22.5935 52.4879 22.863C52.2082 23.1325 51.988 23.4576 51.8415 23.8174C51.6171 24.2518 51.4867 24.5125 51.016 24.6863C50.8194 24.7531 50.6106 24.7761 50.4042 24.7536C50.1977 24.7311 49.9988 24.6636 49.8212 24.556C49.479 24.3728 49.102 24.2638 48.7148 24.236C48.3276 24.2083 47.9389 24.2625 47.5741 24.395C47.2092 24.5276 46.8764 24.7355 46.5973 25.0053C46.3182 25.2751 46.0991 25.6007 45.9543 25.9608C45.7298 26.3953 45.5922 26.656 45.1215 26.8298C44.9249 26.8966 44.7161 26.9195 44.5097 26.897C44.3033 26.8745 44.1043 26.8071 43.9267 26.6994C43.6019 26.5451 43.255 26.4424 42.8984 26.3953V28.1332C43.0226 28.225 43.141 28.3241 43.2533 28.4301C43.5121 28.7195 43.829 28.951 44.1834 29.1095C44.5378 29.268 44.9216 29.3499 45.3098 29.3499C45.698 29.3499 46.0819 29.268 46.4363 29.1095C46.7906 28.951 47.1076 28.7195 47.3664 28.4301C47.494 28.2656 47.6576 28.1325 47.8446 28.0409C48.0316 27.9493 48.2371 27.9017 48.4453 27.9017C48.6536 27.9017 48.859 27.9493 49.046 28.0409C49.2331 28.1325 49.3966 28.2656 49.5243 28.4301C49.7839 28.7195 50.1015 28.9509 50.4564 29.1093C50.8114 29.2678 51.1958 29.3496 51.5845 29.3496C51.9732 29.3496 52.3575 29.2678 52.7125 29.1093C53.0675 28.9509 53.3851 28.7195 53.6446 28.4301C53.7722 28.265 53.936 28.1315 54.1234 28.0399C54.3108 27.9482 54.5168 27.9009 54.7254 27.9016C54.934 27.9023 55.1397 27.951 55.3265 28.0439C55.5132 28.1368 55.6761 28.2714 55.8026 28.4374C56.0634 28.7247 56.3814 28.9543 56.7362 29.1114C57.091 29.2686 57.4747 29.3497 57.8627 29.3497C58.2508 29.3497 58.6345 29.2686 58.9893 29.1114C59.3441 28.9543 59.6621 28.7247 59.9229 28.4374C60.0522 28.274 60.2159 28.1413 60.4024 28.0487C60.589 27.956 60.7937 27.9058 61.0019 27.9015V26.4532C60.6136 26.4553 60.23 26.5374 59.8749 26.6944C59.5198 26.8513 59.2009 27.0799 58.9381 27.3656Z" fill="#3978E9"/>
</g>
<defs>
<clipPath id="clip0_13_1442">
<rect width="42" height="42" fill="white" transform="translate(19 19)"/>
</clipPath>
</defs>
</svg>
