<svg width="60" height="60" viewBox="0 0 60 60" fill="none" xmlns="http://www.w3.org/2000/svg">
<path d="M30.0683 0H29.9317C13.4009 0 0 13.4009 0 29.9317V30.0683C0 46.5991 13.4009 60 29.9317 60H30.0683C46.5991 60 60 46.5991 60 30.0683V29.9317C60 13.4009 46.5991 0 30.0683 0Z" fill="#00B900"/>
<path fill-rule="evenodd" clip-rule="evenodd" d="M48.5958 28.9466C48.5958 20.4597 40.0852 13.5547 29.6235 13.5547C19.1631 13.5547 10.6516 20.4597 10.6516 28.9466C10.6516 36.5553 17.401 42.9276 26.5183 44.1322C27.1362 44.2655 27.9773 44.539 28.1897 45.0673C28.3812 45.547 28.3147 46.298 28.2509 46.782C28.2509 46.782 28.0286 48.1204 27.9804 48.4061C27.8974 48.8853 27.5991 50.2814 29.6235 49.4284C31.6488 48.5754 40.5499 42.997 44.5305 38.4167H44.5297C47.2788 35.4023 48.5958 32.3435 48.5958 28.9466Z" fill="white"/>
<path d="M18.5759 24.8447C18.78 24.8447 18.946 25.0098 18.946 25.2139V31.7773H22.5613C22.7652 31.7773 22.9302 31.9426 22.9304 32.1465V33.4766C22.9304 33.6806 22.7654 33.8467 22.5613 33.8467H17.2449C17.1459 33.8467 17.0569 33.807 16.99 33.7432C16.9887 33.7411 16.9858 33.7405 16.9841 33.7393C16.982 33.7371 16.9806 33.7342 16.9792 33.7324C16.9156 33.6665 16.8757 33.5764 16.8757 33.4775V25.2139C16.8757 25.01 17.0414 24.8449 17.2449 24.8447H18.5759ZM25.7732 24.8447C25.9772 24.8448 26.1423 25.0103 26.1423 25.2139V33.4775C26.1423 33.6811 25.9772 33.8466 25.7732 33.8467H24.4421C24.2385 33.8467 24.073 33.6811 24.073 33.4775V25.2139C24.073 25.0103 24.2385 24.8447 24.4421 24.8447H25.7732ZM29.1677 24.8467C29.1741 24.8475 29.1809 24.8474 29.1873 24.8486C29.192 24.8491 29.1977 24.8507 29.2029 24.8516C29.2102 24.8529 29.2175 24.8537 29.2244 24.8555C29.229 24.8567 29.2328 24.8581 29.2371 24.8594C29.2443 24.8615 29.2517 24.8632 29.2585 24.8662C29.2629 24.8675 29.2669 24.8694 29.2712 24.8711C29.2784 24.8733 29.285 24.8769 29.2917 24.8799C29.2955 24.8815 29.2997 24.8831 29.3035 24.8848C29.3099 24.8882 29.3166 24.8926 29.323 24.8965C29.3269 24.8987 29.3312 24.9007 29.3347 24.9033C29.3412 24.9076 29.3482 24.9117 29.3542 24.916C29.3575 24.9185 29.3601 24.9209 29.363 24.9238C29.37 24.9286 29.377 24.9343 29.3835 24.9395C29.3856 24.9415 29.3873 24.9442 29.3894 24.9463C29.3968 24.9532 29.4055 24.9609 29.4128 24.9688C29.4133 24.9696 29.4139 24.9708 29.4148 24.9717C29.4247 24.9833 29.4345 24.9959 29.4431 25.0088L33.2322 30.123V25.2139C33.2322 25.0103 33.3969 24.8449 33.6013 24.8447H34.9324C35.1363 24.8449 35.3015 25.0104 35.3015 25.2139V33.4775C35.3015 33.681 35.1363 33.8465 34.9324 33.8467H33.6013C33.568 33.8467 33.5361 33.8422 33.5066 33.834C33.5051 33.8339 33.5033 33.8331 33.5017 33.833C33.4936 33.8304 33.4849 33.8282 33.4763 33.8252C33.4729 33.8239 33.4694 33.8216 33.4656 33.8203C33.4591 33.8177 33.453 33.816 33.447 33.8135C33.441 33.8109 33.4351 33.8077 33.4294 33.8047C33.4255 33.8025 33.4217 33.8 33.4187 33.7979C33.4111 33.794 33.4034 33.7898 33.3962 33.7852C33.395 33.7839 33.3935 33.783 33.3923 33.7822C33.3572 33.7584 33.3251 33.7273 33.2986 33.6904L29.5056 28.5703V33.4775C29.5056 33.6811 29.3396 33.8467 29.1355 33.8467H27.8044C27.601 33.8464 27.4353 33.681 27.4353 33.4775V25.2139C27.4353 25.0104 27.601 24.845 27.8044 24.8447H29.1492C29.1555 24.8451 29.1614 24.8463 29.1677 24.8467ZM42.2781 24.8447C42.4821 24.8447 42.6471 25.01 42.6472 25.2139V26.5449C42.6471 26.7489 42.4821 26.9141 42.2781 26.9141H38.6628V28.3105H42.2781C42.4822 28.3105 42.6472 28.4766 42.6472 28.6807V30.0107C42.6472 30.2152 42.4821 30.3799 42.2781 30.3799H38.6628V31.7773H42.2781C42.482 31.7773 42.647 31.9426 42.6472 32.1465V33.4766C42.6472 33.6806 42.4822 33.8467 42.2781 33.8467H36.9617C36.8622 33.8467 36.7728 33.807 36.7068 33.7432C36.7047 33.7423 36.7022 33.7406 36.7009 33.7393C36.6992 33.7375 36.6969 33.7346 36.696 33.7324C36.6319 33.6665 36.5925 33.5764 36.5925 33.4775V25.2139C36.5925 25.1149 36.6317 25.025 36.6951 24.959C36.6963 24.9569 36.6989 24.9552 36.7009 24.9531C36.7022 24.9518 36.7045 24.9509 36.7058 24.9492C36.7722 24.885 36.8618 24.8447 36.9617 24.8447H42.2781Z" fill="#00B900"/>
</svg>
