<svg width="60" height="60" viewBox="0 0 60 60" fill="none" xmlns="http://www.w3.org/2000/svg">
<path d="M60 30C60 13.4315 46.5686 0 30 0C13.4315 0 0 13.4315 0 30C0 46.5685 13.4315 60 30 60C46.5686 60 60 46.5685 60 30Z" fill="#FF0209"/>
<path d="M42.7359 43.2862C41.842 43.3832 40.9271 43.4 40.0502 43.3979C33.2095 43.3916 26.3687 43.3853 19.5302 43.381C17.3778 43.381 15.0336 43.3115 13.3704 41.9433C11.4963 40.3981 11.1063 37.7188 10.9545 35.2945C10.7437 31.9721 10.7268 28.6393 10.8997 25.3149C10.9946 23.4893 11.1611 21.6194 11.9474 19.9667C12.5124 18.7798 13.4547 17.7131 14.6605 17.1524C16.0624 16.501 17.5296 16.6169 19.039 16.6148C22.6522 16.6106 26.2655 16.6085 29.8787 16.6043C33.6353 16.6001 37.394 16.598 41.1506 16.5938C42.9256 16.5938 44.8313 16.6296 46.2795 17.6562C48.1494 18.9801 48.6574 21.4992 48.8914 23.7781C49.3236 27.9752 49.3299 32.2167 48.9083 36.4139C48.7333 38.1446 48.4424 39.9744 47.3019 41.2877C46.172 42.5905 44.4961 43.0922 42.738 43.2841L42.7359 43.2862Z" fill="white"/>
<path d="M36.1167 29.998L25.9221 24.1123V35.8838L36.1167 29.998Z" fill="#FF0209"/>
</svg>
