<svg width="541" height="516" viewBox="0 0 541 516" fill="none" xmlns="http://www.w3.org/2000/svg">
<path fill-rule="evenodd" clip-rule="evenodd" d="M1.51173 1.78387C2.80549 2.73188 4.48798 3.50729 5.24948 3.50729C6.01098 3.50729 6.63394 3.83848 6.63394 4.24239C6.63394 4.64718 7.77221 5.43398 9.16365 5.99122C10.5541 6.54846 12.2366 7.40623 12.9014 7.89688C14.5171 9.09022 19.9742 12.1787 26.0702 15.3495C28.8113 16.7751 31.7775 18.3408 32.6626 18.8288C33.5477 19.3168 36.0147 20.6127 38.1447 21.7088C40.2747 22.804 43.6576 24.5782 45.662 25.6515C47.6665 26.7239 53.8263 29.9675 59.3492 32.8588L69.3923 38.1158L69.4102 78.6078L69.4281 119.1L71.6708 120.138C72.9038 120.708 74.1377 121.446 74.4118 121.777C74.6859 122.108 77.8256 123.851 81.389 125.651C84.9523 127.451 91.6802 130.916 96.34 133.352C108.653 139.79 111.444 141.22 114.78 142.79C116.424 143.564 118.891 144.839 120.262 145.622C128.156 150.136 150.143 159.776 150.941 159.073C151.31 158.749 151.658 150.918 151.713 141.67C151.769 132.423 152.18 116.105 152.625 105.41L153.437 85.9632L158.03 88.1247C160.555 89.3137 164.417 91.2772 166.61 92.488C168.802 93.6989 171.942 95.3014 173.587 96.0497C175.231 96.7979 178.82 98.5485 181.561 99.9407C189.394 103.919 197.034 107.166 197.532 106.727C197.783 106.508 198.228 97.2877 198.521 86.2401C199.343 55.2484 199.107 56.2349 206.479 52.973C208.124 52.2449 210.366 51.1637 211.463 50.5688C217.388 47.3568 226.08 42.9347 226.467 42.9347C226.712 42.9347 226.912 53.5188 226.912 66.4554C226.912 88.1291 226.768 90.09 225.089 91.4261C224.086 92.2234 222.981 92.8762 222.632 92.8762C222.283 92.8762 219.851 94.0976 217.229 95.5897C214.25 97.2851 213.395 98.0745 214.951 97.6925C216.322 97.3569 219.037 96.1355 220.985 94.979C226.94 91.4437 226.997 91.5453 226.69 105.3L226.414 117.724L216.945 122.851C211.737 125.67 206.579 128.367 205.482 128.844C204.386 129.32 201.47 130.872 199.003 132.291C196.537 133.712 192.948 135.673 191.03 136.65C189.111 137.627 185.747 139.406 183.554 140.602C181.361 141.798 177.997 143.585 176.079 144.573C174.16 145.563 171.244 147.137 169.6 148.073C167.955 149.01 165.04 150.558 163.121 151.514C161.202 152.471 160.031 153.271 160.519 153.293C161.293 153.326 175.891 146.28 189.87 139.124C192.427 137.816 195.415 136.334 196.512 135.831C197.608 135.329 200.748 133.738 203.489 132.295C206.23 130.853 210.267 128.867 212.459 127.884C214.652 126.9 218.24 125.135 220.433 123.96C222.626 122.786 225.421 121.362 226.644 120.798C227.867 120.234 229.134 119.032 229.46 118.13C229.999 116.637 230.294 116.716 232.731 119.009C234.204 120.396 236.973 122.235 238.885 123.096C240.798 123.957 242.586 124.949 242.86 125.299C243.134 125.649 245.152 126.787 247.345 127.83C249.538 128.872 252.678 130.491 254.322 131.427C255.967 132.364 259.056 134.029 261.186 135.127C263.316 136.225 265.783 137.517 266.668 138C267.553 138.482 275 142.424 283.218 146.761C291.437 151.097 299.062 155.123 300.163 155.706C301.264 156.29 303.174 157.24 304.408 157.818C305.642 158.397 306.651 159.547 306.651 160.374C306.651 161.201 307.323 162.369 308.146 162.969C309.409 163.89 309.642 167.821 309.644 188.266C309.646 201.58 309.943 218.727 310.303 226.37C311.029 241.757 311.158 242.048 318.611 245.139C320.53 245.935 322.549 246.926 323.097 247.342C323.645 247.758 326.973 249.548 330.492 251.319C334.011 253.092 337.061 254.993 337.27 255.544C337.48 256.096 334.376 258.188 330.374 260.193C326.371 262.198 320.181 265.383 316.618 267.271C313.055 269.159 309.803 270.712 309.392 270.72C308.98 270.73 308.581 263.543 308.504 254.748C308.404 243.361 308.146 240.145 307.606 243.577C307.189 246.227 306.803 254.206 306.749 261.308L306.651 274.221L310.662 276.446C312.866 277.67 316.343 279.351 318.386 280.18C320.429 281.011 322.622 282.121 323.261 282.648C323.899 283.175 325.918 284.138 327.747 284.789C329.575 285.439 331.295 286.201 331.569 286.483C331.843 286.765 333.973 287.735 336.303 288.637C338.633 289.54 340.54 290.614 340.54 291.023C340.54 291.431 340.988 291.766 341.536 291.766C343.818 291.766 342.265 290.174 338.546 288.699C336.353 287.83 334.559 286.827 334.559 286.471C334.559 286.115 333.469 285.582 332.137 285.288C330.805 284.994 329.119 284.23 328.391 283.59C327.664 282.951 325.878 281.867 324.424 281.183C317.075 277.722 311.634 274.78 311.634 274.265C311.634 273.95 313.092 273.037 314.874 272.238C316.656 271.439 322.15 268.816 327.084 266.411C332.018 264.006 338.024 261.233 340.431 260.249L344.808 258.461L353.389 262.698C358.108 265.029 363.764 267.858 365.956 268.985C370.757 271.45 377.879 274.919 381.717 276.659C386.108 278.65 385.803 277.44 381.315 275.064C379.096 273.889 376.751 272.509 376.103 271.995C375.456 271.482 372.011 269.584 368.448 267.777C364.885 265.971 359.951 263.343 357.484 261.938C355.017 260.532 351.99 258.99 350.756 258.511C349.522 258.031 348.513 257.308 348.513 256.904C348.513 255.928 361.566 249.577 362.912 249.897C363.49 250.035 369.671 252.908 376.648 256.281L389.333 262.414L389.492 270.3L389.651 278.185L390.415 271.772C390.837 268.244 391.453 265.119 391.786 264.826C392.513 264.186 407.295 270.884 407.31 271.861C407.316 272.238 406.535 272.833 405.576 273.183C402.211 274.412 392.363 279.676 391.719 280.592C391.361 281.101 391.889 282.045 392.892 282.69C393.896 283.334 394.382 284.156 393.974 284.516C393.565 284.875 392.475 284.307 391.554 283.254L389.878 281.339L376.92 288.291C369.794 292.115 362.393 296.035 360.474 297.004C358.556 297.973 355.192 299.744 352.999 300.94C350.806 302.136 347.442 303.923 345.523 304.912C343.605 305.901 340.689 307.475 339.045 308.411C337.4 309.348 334.484 310.936 332.566 311.943C330.647 312.95 329.924 313.544 330.961 313.263C332.513 312.845 353.894 302.405 375.282 291.623C377.827 290.339 381.48 288.586 383.399 287.727C385.318 286.866 387.224 286.011 387.635 285.825C388.046 285.639 388.383 285.92 388.383 286.45C388.383 286.98 386.813 288.071 384.894 288.875C382.976 289.68 381.406 290.621 381.406 290.966C381.406 291.312 380.06 292.007 378.415 292.511C376.771 293.014 375.432 293.94 375.44 294.568C375.451 295.357 375.681 295.407 376.188 294.732C376.59 294.194 377.927 293.478 379.157 293.141C380.387 292.803 381.978 292.014 382.692 291.386C383.406 290.758 384.922 289.985 386.061 289.667L388.134 289.089L387.664 314.741C387.406 328.849 386.901 345.1 386.543 350.852L385.891 361.311L381.406 363.761C378.939 365.109 376.267 366.489 375.467 366.828C373.95 367.471 344.143 383.105 341.536 384.625C340.714 385.105 338.298 386.388 336.168 387.478C334.038 388.567 331.571 389.858 330.686 390.346C329.801 390.834 326.835 392.392 324.094 393.808C321.353 395.224 318.886 396.639 318.611 396.951C318.024 397.621 314.011 399.534 313.195 399.534C312.885 399.534 312.631 388.1 312.631 374.125C312.631 357.77 312.276 348.717 311.634 348.717C310.746 348.717 310.268 364.033 310.164 395.777L310.139 403.41L314.126 405.75C318.236 408.162 330.026 414.001 337.051 417.103C339.244 418.071 341.711 419.221 342.533 419.658C352.665 425.039 367.451 431.515 367.451 430.571C367.451 430.316 366.106 429.696 364.461 429.192C362.817 428.689 361.471 427.968 361.471 427.592C361.471 427.216 360.014 426.39 358.232 425.756C356.451 425.123 354.768 424.361 354.494 424.064C354.043 423.576 348.427 420.679 324.332 408.503C320.078 406.352 316.368 404.269 316.089 403.871C315.81 403.474 317.945 402.105 320.834 400.83C325.887 398.598 344.432 389.765 347.517 388.119C348.339 387.681 350.806 386.531 352.999 385.565C355.192 384.597 357.659 383.416 358.481 382.939C359.303 382.461 366.928 378.68 375.425 374.535C386.516 369.125 391.296 367.219 392.37 367.782C393.192 368.213 398.574 370.826 404.331 373.587C410.087 376.35 415.469 378.964 416.291 379.396C420.924 381.833 437.301 389.896 437.617 389.896C437.823 389.896 443.265 392.491 449.71 395.661C456.156 398.831 462.513 401.788 463.839 402.23C466.815 403.225 466.159 404.254 460.942 406.775C458.712 407.853 455.042 409.625 452.787 410.715C450.531 411.804 447.066 413.578 445.086 414.658C443.107 415.736 434.81 419.953 426.646 424.027C418.484 428.102 411.582 431.661 411.308 431.937C411.034 432.213 409.688 432.923 408.318 433.514L405.826 434.59L408.318 434.046C409.688 433.748 414.846 431.516 419.78 429.088C424.714 426.66 433.012 422.682 438.22 420.249C443.427 417.817 449.931 414.723 452.672 413.376C455.413 412.027 459.226 410.289 461.144 409.512C463.063 408.735 464.857 407.802 465.131 407.439C465.405 407.076 466.571 406.522 467.72 406.207L469.809 405.635L470.363 444.617C470.974 487.602 470.517 484.787 477.415 488.008C484.261 491.202 487.578 492.868 488.055 493.347C488.527 493.821 518.301 508.657 525.208 511.86C530.085 514.122 530.954 513.696 526.43 511.26C524.238 510.08 521.771 508.836 520.948 508.495C520.126 508.155 516.843 506.368 513.651 504.523C510.461 502.678 507.703 501.169 507.522 501.169C507.342 501.169 504.346 499.597 500.864 497.674C497.384 495.752 492.965 493.375 491.046 492.392C489.128 491.41 486.212 489.84 484.568 488.903C482.923 487.966 479.896 486.393 477.84 485.405L474.102 483.61V446.419C474.102 411.358 474.202 409.26 475.846 409.815C477.411 410.342 491.273 416.852 495.033 418.825C495.856 419.257 503.032 422.848 510.981 426.807C518.93 430.765 528.654 435.711 532.59 437.797C536.526 439.883 540.003 441.59 540.315 441.59C540.628 441.59 540.883 440.946 540.883 440.159C540.883 438.646 537.288 435.457 535.58 435.457C535.025 435.457 534.858 435.205 535.208 434.896C535.559 434.588 534.531 433.701 532.923 432.925C530.233 431.626 519.442 426.089 511.394 421.876C509.552 420.913 503.436 417.784 497.801 414.923C484.007 407.921 477.092 404 477.092 403.183C477.092 402.81 480.343 401.015 484.318 399.193C488.293 397.371 492.218 395.542 493.04 395.127C493.862 394.713 500.322 391.586 507.394 388.178C519.582 382.306 520.373 382.052 522.559 383.311C525.984 385.283 528.184 384.965 534.849 381.531C542.99 377.337 542.573 375.777 534.37 379.74C527.2 383.204 525.737 383.477 524.026 381.666C522.83 380.4 522.833 380.398 536.459 374.353C540.703 372.47 540.883 372.23 540.883 368.464V364.538L536.149 367.114C533.545 368.53 529.62 370.543 527.427 371.587C525.234 372.631 523.216 373.771 522.942 374.119C522.668 374.469 520.848 375.256 518.897 375.869C515.509 376.934 515.005 376.813 507.59 373.145C503.322 371.034 498.19 368.447 496.186 367.396C490.756 364.55 486.006 362.236 481.859 360.417C479.821 359.523 478.139 358.296 478.122 357.688C478.104 357.081 480.081 355.701 482.516 354.622C486.276 352.955 495.226 348.493 522.614 334.63L527.075 332.373L531.718 334.439C534.271 335.575 536.795 336.887 537.326 337.354C539.068 338.885 540.883 338.243 540.883 336.095C540.883 334.456 539.668 333.386 535.401 331.27L529.919 328.55V312.046C529.919 293.707 529.662 294.442 537.145 291.434C540.268 290.178 540.883 289.494 540.883 287.273V284.614L537.145 286.577C535.09 287.657 532.981 288.873 532.461 289.277C530.446 290.843 529.919 289.814 529.919 284.318C529.919 281.186 530.255 278.628 530.667 278.634C531.078 278.64 533.366 279.626 535.752 280.824C538.138 282.023 540.268 283.004 540.486 283.004C540.705 283.004 540.883 280.855 540.883 278.229C540.883 274.615 540.458 273.23 539.139 272.534C537.477 271.659 537.477 271.559 539.139 270.422C540.098 269.767 540.883 268.395 540.883 267.374C540.883 265.713 540.622 265.623 538.391 266.516C537.021 267.065 535.899 267.846 535.899 268.25C535.899 269.908 531.204 268.899 530.15 267.014C529.465 265.787 528.899 256.364 528.653 242.054C528.264 219.404 528.225 219.04 525.98 217.329C524.727 216.373 522.766 215.331 521.624 215.012C520.481 214.693 518.98 213.991 518.288 213.452C514.913 210.824 513.97 210.269 513.956 210.905C513.947 211.286 513.611 211.147 513.209 210.598C512.806 210.048 509.561 208.081 505.997 206.226C502.434 204.37 498.766 202.454 497.847 201.968C496.927 201.48 493.115 199.544 489.375 197.664C485.634 195.784 481.28 193.451 479.699 192.481C476.94 190.79 476.9 190.668 478.702 189.471C479.735 188.785 482.823 187.278 485.564 186.122C488.305 184.966 492.791 182.858 495.532 181.438C498.273 180.019 501.079 178.831 501.769 178.798C503.14 178.735 515.087 184.658 529.919 192.754C535.127 195.596 539.724 197.943 540.135 197.969C541.402 198.048 540.961 191.277 539.637 190.331C538.233 189.328 533.842 187.138 522.942 182.003C518.83 180.066 514.794 178.009 513.971 177.43C513.149 176.851 511.59 176.1 510.508 175.759C508.82 175.228 509.246 174.774 513.498 172.574C516.225 171.163 518.962 170.002 519.581 169.994C520.199 169.986 521.238 169.413 521.892 168.721C524.351 166.116 528.453 166.226 534.145 169.05C537.117 170.525 539.879 171.731 540.282 171.731C540.686 171.731 540.873 170.66 540.7 169.35C540.49 167.763 539.221 166.307 536.896 164.985C534.977 163.893 532.847 162.583 532.162 162.074C531.258 161.402 530.916 157.17 530.916 146.647C530.916 132.703 531.001 132.08 533.158 130.426L535.401 128.706L532.909 129.176C531.539 129.434 532.542 128.765 535.14 127.689C539.183 126.015 541.939 123.302 540.702 122.215C540.501 122.038 538.277 123.022 535.757 124.402L531.175 126.908L530.556 122.378C529.713 116.214 529.763 111.275 530.667 111.28C531.078 111.283 533.208 112.256 535.401 113.443C540.416 116.159 540.883 116.159 540.883 113.455C540.883 111.716 539.949 110.854 536.447 109.359C534.007 108.316 532.243 107.133 532.527 106.728C532.812 106.324 534.808 105.203 536.964 104.236C539.12 103.269 540.883 101.858 540.883 101.098C540.883 100.004 539.752 100.28 535.42 102.429L529.956 105.139L529.29 102.806C528.182 98.9244 529.872 55.9633 531.232 53.4706C531.894 52.2563 534.224 50.4487 536.41 49.4552C539.613 47.999 540.445 47.1062 540.697 44.8535C541.076 41.4593 539.987 41.334 534.492 44.1368C527.134 47.8903 526.839 47.8632 515.729 42.3687C510.102 39.586 503.481 36.381 501.014 35.2455C498.547 34.11 494.734 32.285 492.541 31.1889C490.349 30.0937 486.312 28.1275 483.571 26.8203C476.8 23.5916 476.494 23.1807 479.748 21.7009C481.302 20.9938 485.843 18.7368 489.839 16.6848C495.528 13.7637 497.692 13.082 499.807 13.5438C501.293 13.8688 503.26 14.193 504.18 14.2657C505.099 14.3376 505.672 14.6504 505.455 14.9597C505.237 15.2698 507.177 16.5823 509.764 17.8764C512.353 19.1705 516.264 21.2067 518.457 22.4018C520.649 23.5969 523.565 25.0505 524.935 25.6322C526.306 26.214 527.651 26.9149 527.926 27.1909C528.609 27.8778 539.715 33.2969 540.439 33.2969C540.759 33.2969 540.878 32.4339 540.704 31.3781C540.514 30.24 538.691 28.5481 536.219 27.2163C514.19 15.3539 507.326 11.7406 505.809 11.207C503.611 10.4343 504.433 8.16499 507.189 7.39571C508.291 7.08818 510.729 5.92025 512.607 4.80051C518.362 1.36682 514.397 1.45969 507.351 4.92405C501.265 7.91528 500.522 8.0835 498.418 6.94186C487.77 1.16705 484.691 -0.0779787 481.741 0.200642L478.587 0.498538L481.297 1.69275C482.787 2.34988 483.763 3.23393 483.465 3.65712C483.168 4.0803 483.294 4.35454 483.746 4.26605C485.345 3.95326 488.036 5.45588 487.427 6.32154C487.039 6.87264 487.645 6.96639 489.053 6.57387C490.733 6.10512 491.099 6.22866 490.509 7.06715C489.945 7.86972 490.206 8.02305 491.433 7.60862C492.508 7.24677 492.902 7.37556 492.494 7.95646C492.136 8.46464 492.565 9.34781 493.447 9.9182C494.808 10.7979 493.628 11.6513 485.654 15.5546C480.486 18.0849 475.959 20.1544 475.593 20.1544C475.226 20.1544 475.078 15.6194 475.262 10.0777L475.597 0L473.234 0.00175233L470.871 0.0026285L471.286 10.9547C471.514 16.9783 471.6 21.9068 471.477 21.9068C471.354 21.9068 468.642 20.391 465.451 18.5379C462.26 16.6848 457.746 14.2202 455.421 13.0619C453.096 11.9027 451.337 10.5604 451.512 10.0785C451.687 9.59664 453.59 8.32182 455.74 7.24501C460.657 4.78386 459.431 4.65156 454.053 7.06277C449.376 9.16031 446.229 8.87205 450.679 6.75349C454.505 4.93194 453.061 4.81103 449.081 6.62031C446.209 7.92579 445.887 7.87235 441.142 5.30606C438.422 3.83498 435.947 2.63113 435.642 2.63113C435.337 2.63113 434.414 2.03971 433.592 1.31688C432.769 0.59404 430.499 0.0026285 428.545 0.0026285H424.993L427.528 1.75496C428.921 2.71874 430.483 3.50729 430.998 3.50729C431.512 3.50729 432.866 4.19771 434.006 5.04058C435.146 5.88433 437.543 7.28882 439.333 8.16236L442.587 9.75085L427.695 17.073C419.504 21.0998 412.354 24.7219 411.806 25.1223C411.258 25.5218 409.051 26.6381 406.902 27.6018C404.753 28.5656 401.165 30.19 398.928 31.2125L394.862 33.07L394.574 22.4509C394.242 10.2073 394.612 8.21493 397.37 7.44566C398.474 7.13725 399.145 6.55635 398.861 6.15419C398.578 5.75203 399.357 5.65214 400.592 5.93164C402.658 6.39951 402.718 6.31365 401.348 4.84695C399.99 3.39251 400.033 3.30139 401.847 3.79905C404.496 4.5254 407.232 3.12441 404.779 2.29731C403.792 1.96436 401.621 2.46991 399.655 3.48977C395.011 5.89835 394.057 5.73713 394.576 2.63113C394.987 0.167348 394.811 0.0026285 391.751 0.0026285C388.517 0.0026285 388.484 0.0455602 388.185 4.58585L387.884 9.16995L376.92 14.6031L365.956 20.0362L365.675 10.0198C365.395 0.020151 365.39 0.0026285 362.934 0.0026285C360.475 0.0026285 360.474 0.00525769 360.474 9.20237C360.474 14.2622 360.29 18.4021 360.064 18.4021C359.837 18.4021 351.329 14.2622 341.155 9.20237C330.981 4.14251 321.784 0.0026285 320.718 0.0026285C315.887 0.0026285 318.91 3.49327 326.585 6.78152C327.956 7.36855 330.871 8.84051 333.064 10.0522C335.257 11.264 338.621 12.9489 340.54 13.7961C342.458 14.6425 344.252 15.5519 344.527 15.8157C345.276 16.5376 354.715 21.3697 356.906 22.1521C358.054 22.563 358.453 23.1492 357.903 23.6197C356.417 24.8884 333.858 35.9254 332.749 35.9254C332.192 35.9254 331.586 36.2207 331.403 36.5825C331.22 36.9435 329.501 37.938 327.582 38.7922C325.663 39.6465 321.851 41.4917 319.11 42.8936C312.224 46.4131 309.844 47.3156 307.442 47.3156C305.849 47.3156 278.638 34.6252 269.772 29.7467C268.949 29.2946 266.593 28.2371 264.535 27.3977C262.476 26.5583 260.943 25.4728 261.129 24.9856C261.313 24.4985 265.015 22.2853 269.356 20.0668C273.696 17.8475 277.14 15.594 277.01 15.0587C276.878 14.5198 277.446 14.3113 278.281 14.5925C279.11 14.8729 281.465 14.1264 283.514 12.934C285.564 11.7415 288.244 10.4868 289.47 10.1442C290.696 9.80254 291.7 9.18134 291.7 8.76429C291.7 8.34723 292.631 7.74618 293.768 7.42901C294.906 7.11184 295.606 6.64835 295.323 6.39951C295.04 6.15156 292.372 7.17317 289.395 8.67054C282.89 11.9421 281.021 12.2462 286.123 9.20237C288.142 7.99764 289.99 7.01195 290.229 7.01195C290.941 7.01195 301.667 0.857766 301.667 0.449473C301.667 0.242698 300.317 0.155957 298.668 0.256717C296.6 0.383761 295.83 0.810453 296.188 1.63317C296.53 2.42085 296.194 2.65391 295.199 2.31833C293.164 1.63142 290.558 2.59257 291.361 3.73422C291.727 4.25466 291.532 4.39572 290.912 4.05928C290.309 3.73159 285.28 5.74064 279.734 8.52334C274.189 11.306 267.997 14.3139 265.974 15.2076C263.952 16.1004 261.623 17.3358 260.801 17.9509C259.979 18.5668 258.297 19.3414 257.063 19.6717C254.828 20.271 254.821 20.2421 254.821 10.1372C254.821 0.587032 254.706 0.0026285 252.827 0.0026285C250.954 0.0026285 250.834 0.587031 250.834 9.64045C250.834 14.9413 250.431 19.2783 249.939 19.2783C249.014 19.2783 240.091 15.2777 236.132 13.0882C234.166 12.0008 233.889 11.115 233.889 5.92463V0.0026285H230.899C228.019 0.0026285 227.909 0.148948 227.909 3.94537C227.909 6.2418 227.448 7.88812 226.806 7.88812C226.2 7.88812 222.115 6.11388 217.728 3.94537C213.341 1.77686 209.353 0.0026285 208.863 0.0026285C207.558 0.0026285 207.775 0.828853 209.469 2.31833C210.292 3.04117 210.964 3.39164 210.964 3.09637C210.964 2.8011 212.193 3.56161 213.695 4.78649C215.197 6.0105 216.747 7.01195 217.139 7.01195C217.532 7.01195 219.457 7.96873 221.419 9.13929C223.38 10.309 225.531 11.4252 226.197 11.6197C227.019 11.8589 227.572 15.2786 227.909 22.1985C228.183 27.8226 228.272 32.4234 228.106 32.4225C226.782 32.4146 179.843 9.54232 177.075 7.55605C176.253 6.96552 173.027 5.41821 169.906 4.11623C166.785 2.81512 163.955 1.35718 163.617 0.876166C162.86 -0.202394 160.131 -0.283002 160.131 0.772778C160.131 1.19597 161.365 2.00379 162.872 2.56892C166.021 3.74736 172.508 8.23946 169.808 7.37118C168.62 6.98917 168.12 7.1793 168.313 7.93981C168.473 8.5689 166.585 10.0006 164.118 11.1212C161.651 12.2427 157.39 14.3358 154.649 15.7736C148.486 19.0067 145.058 20.3393 144.399 19.7602C144.121 19.5166 144.298 14.971 144.79 9.65973L145.685 0.0026285H142.474C139.938 0.0026285 139.391 0.297896 139.874 1.40537C140.211 2.1764 139.86 3.15682 139.096 3.58264C138.101 4.1355 138.06 4.36068 138.95 4.37031C139.854 4.37995 140.196 6.56949 140.196 12.3557V20.3279L136.458 18.3495C134.403 17.2613 131.535 15.8341 130.084 15.1778C128.635 14.5216 126.907 13.4115 126.245 12.7105C125.258 11.6653 125.552 11.2395 127.885 10.337C129.448 9.73245 130.952 8.99121 131.226 8.69069C131.5 8.38929 133.07 7.50962 134.714 6.73596C136.359 5.96231 137.256 5.31833 136.708 5.30518C136.159 5.29204 133.693 6.30226 131.226 7.5508C128.759 8.79933 125.619 10.1889 124.248 10.6384C121.921 11.4015 121.954 11.3113 124.747 9.26545C126.391 8.06072 128.265 7.06102 128.912 7.0435C129.558 7.02597 130.694 6.47837 131.436 5.82563C132.178 5.17288 134.117 4.00583 135.744 3.23218C137.37 2.45852 138.253 1.81103 137.704 1.79351C137.156 1.77599 135.138 2.62061 133.219 3.67026C131.3 4.7199 127.585 6.53444 124.961 7.70325L120.191 9.82795L110.145 4.87586C104.619 2.15186 99.5893 0.0744741 98.9663 0.258469C97.9078 0.572136 99.7707 1.70239 112.273 8.3262C117.329 11.0055 118.452 12.2689 115.776 12.2689C114.954 12.2689 114.281 12.5809 114.281 12.9629C114.281 13.344 112.823 14.2649 111.042 15.0096C109.26 15.7535 99.8335 20.3411 90.0944 25.2029L72.3875 34.0434L73.0573 17.023L73.7281 0.0026285H69.9295H66.131L66.7121 16.2117C67.032 25.1267 66.9891 32.4015 66.6164 32.3787C65.5479 32.3121 45.3301 22.3571 32.0506 15.3583C28.0547 13.2529 24.9669 11.7231 16.6013 7.70763C8.04432 3.60016 4.13713 1.58586 3.19521 0.796435C2.67392 0.360104 1.55359 0.015771 0.703379 0.031542C-0.430904 0.0534461 -0.21561 0.519566 1.51173 1.78387ZM185.369 1.224C185.901 2.4445 185.697 2.70122 184.51 2.30081C183.49 1.95648 183.198 2.12558 183.666 2.78971C184.153 3.48363 183.81 3.61331 182.58 3.198C180.358 2.44801 175.436 5.04496 176.802 6.24618C178.106 7.39221 181.289 6.1647 180.672 4.7532C180.361 4.04088 180.691 3.77277 181.529 4.05577C182.278 4.30898 184.005 3.99269 185.367 3.35396C187.611 2.30169 187.695 2.07301 186.256 0.907708C184.845 -0.236565 184.747 -0.201518 185.369 1.224ZM299.674 3.50729C298.851 3.97429 298.627 4.3563 299.175 4.3563C299.723 4.3563 300.845 3.97429 301.667 3.50729C302.489 3.04029 302.714 2.65829 302.165 2.65829C301.617 2.65829 300.496 3.04029 299.674 3.50729ZM454.666 3.50729C453.041 4.12148 452.983 4.27131 454.358 4.32212C455.285 4.35542 456.32 3.98918 456.659 3.50729C457.368 2.4997 457.333 2.4997 454.666 3.50729ZM175.476 10.6656C174.986 11.3612 175.305 11.5049 176.465 11.1133C177.438 10.7856 177.925 10.8934 177.594 11.3647C176.78 12.5204 181.719 15.1997 183.534 14.5873C184.355 14.3104 184.919 14.5216 184.788 15.0552C184.658 15.5896 188.363 17.9912 193.023 20.3928C197.683 22.7943 202.841 25.4745 204.486 26.3489C206.13 27.2225 210.756 29.5618 214.765 31.5463C221.822 35.0405 222.889 36.3495 219.875 37.8109C219.086 38.1938 213.863 40.7119 208.268 43.4079L198.095 48.3083L193.815 46.5016C191.461 45.508 187.74 43.7706 185.548 42.6412C183.355 41.511 179.542 39.6123 177.075 38.4216C157.672 29.0537 148.075 24.233 147.665 23.6486C147.4 23.2718 151.778 20.6968 157.395 17.9272C163.011 15.1577 168.279 12.3934 169.101 11.7836C169.924 11.1746 171.718 10.4973 173.088 10.2774C174.459 10.0584 175.719 9.82532 175.888 9.75961C176.058 9.6939 175.872 10.1013 175.476 10.6656ZM442.188 12.5222C438.531 14.6363 432.217 17.2666 433.475 16.153C434.704 15.0639 443.633 10.6077 444.68 10.5604C445.219 10.5368 444.097 11.4191 442.188 12.5222ZM451.675 14.4874C453.868 15.6299 456.784 17.0686 458.154 17.6845C459.525 18.3005 460.87 19.054 461.144 19.3589C461.418 19.6638 463.383 20.6924 465.51 21.6448L469.376 23.3761L466.008 25.153C462.24 27.1419 453.698 31.2826 444.698 35.483C441.409 37.018 434.619 40.3089 429.611 42.7946C424.602 45.2811 419.787 47.3156 418.91 47.3156C417.374 47.3156 408.931 43.5963 401.009 39.4292L397.191 37.4202L400.511 35.6617C402.338 34.6953 404.954 33.2829 406.324 32.5233C408.378 31.3843 425.171 22.8338 435.229 17.8054C436.6 17.1194 439.515 15.6106 441.708 14.4524C446.551 11.8922 446.696 11.8931 451.675 14.4874ZM117.909 13.8224C117.648 14.1948 119.214 14.4988 121.39 14.4988C123.566 14.4988 125.66 14.8966 126.044 15.3828C126.426 15.8682 129.992 17.9745 133.967 20.0633L141.193 23.8597V46.5402C141.193 59.0141 141.072 69.2197 140.924 69.2197C140.52 69.2197 131.286 64.8205 124.111 61.2089C116.419 57.3372 104.817 51.7516 89.8612 44.7195C86.0238 42.9155 81.1657 40.5349 79.0646 39.4292L75.2461 37.4202L78.0678 35.9429C88.2893 30.5931 105.712 21.6597 110.543 19.2914C116.481 16.3817 118.334 14.9071 116.084 14.8843C115.136 14.8747 115.188 14.6381 116.275 14.0213C118.098 12.9857 118.535 12.9322 117.909 13.8224ZM389.163 23.5443L389.445 33.3618L385.675 31.5341C377.803 27.7192 375.816 26.7055 372.167 24.6439L368.41 22.5218L377.649 17.8615C382.73 15.2979 387.336 13.3195 387.884 13.4632C388.45 13.6121 389.004 17.9798 389.163 23.5443ZM242.247 20.0747C249.067 23.4418 249.095 23.4716 246.732 24.7455C241.997 27.2996 235.016 30.6684 234.459 30.6684C234.145 30.6684 233.889 27.5142 233.889 23.6591C233.889 19.804 234.226 16.6577 234.637 16.6682C235.047 16.6778 238.472 18.2111 242.247 20.0747ZM486.561 31.9695C490.398 34.1363 495.281 36.7998 497.411 37.8889C499.542 38.9771 502.008 40.2677 502.894 40.7557C503.779 41.2437 506.745 42.8095 509.486 44.235C512.227 45.6614 515.872 47.6555 517.585 48.6666L520.7 50.5066L505.65 57.8918C481.439 69.7717 476.166 72.2066 475.658 71.7439C475.456 71.56 474.962 61.0223 474.559 48.3258L473.828 25.2415L476.705 26.6363C478.289 27.403 482.724 29.8028 486.561 31.9695ZM263.532 30.0665C267.238 32.1456 270.943 34.1231 271.765 34.4613C272.587 34.8004 275.279 36.2286 277.745 37.6357C280.212 39.0428 285.146 41.6643 288.71 43.4604C292.273 45.2566 295.413 46.9765 295.687 47.2823C295.961 47.5881 298.315 48.9198 300.919 50.242L305.654 52.6462V61.7872V70.9282L303.032 70.0521C301.59 69.5702 299.166 68.397 297.645 67.4455C296.124 66.494 294.605 65.7151 294.269 65.7151C293.932 65.7151 290.704 64.138 287.095 62.2104C283.485 60.2828 280.338 58.7057 280.102 58.7057C279.865 58.7057 274.14 55.9528 267.379 52.5875C255.602 46.7268 255.061 46.3316 254.467 43.1687C252.96 35.1553 254.03 26.2876 256.505 26.2876C256.664 26.2876 259.826 27.9882 263.532 30.0665ZM372.056 29.7923C375.667 31.7198 378.821 33.2969 379.068 33.2969C379.316 33.2969 381.101 34.2423 383.035 35.398L386.553 37.499L376.603 42.4073C371.131 45.1068 366.161 47.3156 365.558 47.3156C364.821 47.3156 364.461 43.8661 364.461 36.8016C364.461 31.0189 364.693 26.2876 364.978 26.2876C365.262 26.2876 368.447 27.8647 372.056 29.7923ZM158.636 33.6886C162.232 35.6337 166.82 37.952 182.527 45.763C185.284 47.1342 189.224 48.8935 191.279 49.6716C195.868 51.4081 195.999 52.6689 191.777 54.4519C187.759 56.1491 178.029 60.784 163.256 68.0386C151.407 73.8564 149.783 74.2883 146.924 72.3809C145.344 71.3269 145.18 69.14 145.18 49.1757V27.134L149.914 29.3332C152.519 30.5423 156.443 32.5022 158.636 33.6886ZM360.474 38.9806V49.9222L356.507 52.1231C354.325 53.334 352.31 54.3249 352.03 54.3249C351.749 54.3249 342.725 58.6619 331.978 63.9627C321.23 69.2635 311.808 73.6005 311.038 73.6005C309.922 73.6005 309.641 71.6046 309.641 63.6604C309.641 52.7241 309.795 52.4096 316.749 49.1766C322.315 46.5875 328.871 43.3378 332.566 41.3357C334.484 40.2957 336.66 39.1874 337.401 38.872C338.142 38.5565 343.293 35.9903 348.847 33.169C354.402 30.3477 359.291 28.0399 359.711 28.0399C360.13 28.0399 360.474 32.9631 360.474 38.9806ZM470.115 50.956C470.115 72.7165 470.027 73.8029 468.371 72.5071C467.412 71.7571 463.487 69.692 459.649 67.9186C455.812 66.1461 450.878 63.805 448.685 62.7168C446.492 61.6295 441.064 59.0001 436.622 56.8745C422.489 50.1123 422.904 50.7396 430.332 47.3752C433.848 45.7823 437.397 44.0177 438.22 43.4534C439.042 42.8892 441.284 41.7502 443.203 40.9222C445.122 40.0942 448.486 38.4207 450.679 37.2029C452.871 35.985 456.011 34.3895 457.656 33.6562C459.3 32.9237 462.44 31.3667 464.633 30.1971C466.826 29.0265 468.956 28.0618 469.367 28.0539C469.779 28.0461 470.115 38.3524 470.115 50.956ZM250.487 43.5314C250.248 43.7417 248.322 43.1187 246.207 42.148C244.092 41.1772 241.108 39.926 239.576 39.3688C236.049 38.086 236.516 36.8594 241.442 34.4578C243.592 33.41 245.821 32.1886 246.394 31.7435C249.65 29.2149 250.331 29.999 250.628 36.6141C250.79 40.2081 250.726 43.3211 250.487 43.5314ZM241.863 44.1579L250.335 48.7542L250.61 62.5933C250.796 71.9358 250.519 76.8205 249.758 77.6265C248.771 78.6718 234.196 86.743 233.296 86.743C233.109 86.743 232.829 76.0976 232.674 63.0857C232.521 50.0746 232.618 39.459 232.892 39.4949C233.167 39.5317 237.203 41.6301 241.863 44.1579ZM399.347 43.8337C407.388 48.5299 409.992 49.9441 410.602 49.9441C410.978 49.9441 412.187 50.6231 413.29 51.4528C415.211 52.8985 415.295 53.999 415.295 77.7378C415.295 104.383 415.415 103.837 410.157 100.917C408.703 100.109 404.623 97.9834 401.091 96.1942L394.668 92.941L394.022 84.366C393.668 79.6496 393.374 68.0167 393.371 58.5138C393.366 39.4967 393.088 40.1783 399.347 43.8337ZM89.1834 50.0238C95.3901 53.1123 102.118 56.4601 104.134 57.4633C106.152 58.4665 109.372 60.1383 111.291 61.1791C113.21 62.2191 116.349 63.7638 118.268 64.612C120.187 65.4592 121.981 66.3844 122.255 66.6666C122.529 66.9487 126.712 69.0673 131.553 71.3742C137.098 74.0185 140.762 76.3631 141.464 77.7168C142.077 78.8987 143.85 80.4434 145.405 81.1505L148.232 82.4349L147.565 118.103C147.199 137.719 146.828 153.853 146.743 153.955C146.548 154.184 118.626 140.264 107.802 134.541C103.417 132.223 98.4829 129.647 96.8383 128.817C93.2102 126.988 82.2661 121.067 77.1947 118.19L73.4998 116.095L73.4569 78.9758L73.4151 41.8571L75.6577 43.1328C76.8907 43.8346 82.9777 46.9353 89.1834 50.0238ZM388.383 66.1531C388.383 78.9232 388.024 89.3715 387.585 89.3715C387.147 89.3715 386.274 88.9194 385.646 88.3674C385.018 87.8155 380.331 85.3096 375.23 82.7985L365.956 78.2328L365.452 66.9364C365.175 60.7227 365.079 55.2449 365.239 54.763C365.511 53.9464 385.989 43.2099 387.635 43.0206C388.047 42.9733 388.383 53.383 388.383 66.1531ZM261.299 54.805C264.04 56.2279 266.956 57.6938 267.778 58.0635C268.6 58.4332 271.292 59.9052 273.758 61.3351C276.225 62.765 279.365 64.4315 280.736 65.0378C282.106 65.6441 283.676 66.4449 284.224 66.8164C286.414 68.3006 292.51 71.6379 298.178 74.4548C301.468 76.0897 304.489 77.8482 304.891 78.3616C305.294 78.8751 305.63 84.7445 305.639 91.4042L305.654 103.513L297.929 99.7909C293.681 97.7433 289.98 95.8429 289.706 95.566C289.432 95.29 287.862 94.4734 286.218 93.7524C284.573 93.0313 283.003 92.2287 282.729 91.9694C282.455 91.7109 276.064 88.4332 268.526 84.6875L254.821 77.8754L254.836 64.1292C254.844 56.5679 255.18 50.7957 255.583 51.3004C255.986 51.805 258.558 53.3821 261.299 54.805ZM425.884 56.6827C428.557 57.9794 430.968 59.2866 431.242 59.588C431.516 59.8894 434.432 61.4727 437.721 63.1067C441.01 64.7408 444.15 66.4212 444.698 66.8409C445.246 67.2606 450.349 70.0529 456.037 73.0468C461.725 76.0407 466.389 78.8645 466.401 79.321C466.412 79.7784 460.413 83.39 453.068 87.3467C445.724 91.3035 439.172 94.9553 438.511 95.4609C437.849 95.9673 437.096 96.3809 436.84 96.3809C436.583 96.3809 432.719 98.3522 428.252 100.762C423.786 103.171 419.94 105.143 419.707 105.143C419.035 105.143 419.212 71.2296 419.929 62.3453C420.285 57.9338 420.677 54.3249 420.801 54.3249C420.923 54.3249 423.211 55.3859 425.884 56.6827ZM524.544 102.274C524.161 102.61 513.93 97.7959 505.507 93.3143C497.944 89.2909 486.719 83.5774 483.7 82.215C476.788 79.095 477.045 78.6543 489.27 72.649C495.455 69.6105 500.74 66.9058 501.014 66.6385C501.288 66.3722 503.082 65.4548 505.001 64.6014C506.919 63.7481 510.283 62.086 512.476 60.9084C514.669 59.7308 517.89 58.1678 519.635 57.4353C521.379 56.7028 523.173 55.605 523.622 54.9952C524.07 54.3854 524.557 64.6899 524.702 77.8938C524.849 91.0976 524.777 102.069 524.544 102.274ZM360.474 66.9951C360.474 78.8313 361.3 77.7422 346.267 85.7468C340.65 88.7372 335.382 91.5611 334.559 92.0202C328.953 95.1551 316.816 101.387 315.372 101.873C313.776 102.409 313.628 101.643 313.628 92.906C313.628 87.6516 314.023 82.4393 314.506 81.3231C315.093 79.965 319.466 77.2857 327.713 73.2299C334.493 69.8961 340.266 66.9391 340.54 66.6604C340.814 66.3818 342.608 65.4575 344.527 64.6076C350.238 62.0781 356.915 58.6803 357.931 57.7875C360.062 55.9143 360.474 57.4064 360.474 66.9951ZM197.724 64.6198C197.495 65.9455 197.309 64.8608 197.309 62.2104C197.309 59.56 197.495 58.4753 197.724 59.8009C197.952 61.1266 197.952 63.2942 197.724 64.6198ZM194.605 102.291C194.173 102.672 171.345 91.4918 160.131 85.4086C157.116 83.7728 154.2 82.279 153.652 82.088C152.218 81.5903 156.118 77.9542 159.633 76.5138C161.277 75.84 169.799 71.6467 178.57 67.1958L194.518 59.1035L194.785 80.5012C194.932 92.2699 194.851 102.076 194.605 102.291ZM150.596 77.892C151.919 78.3467 152.153 78.7559 151.345 79.1949C150.697 79.5471 149.17 79.2211 147.95 78.4703C145.597 77.0211 147.108 76.6908 150.596 77.892ZM312.428 78.8181C311.053 80.7536 310.084 80.5126 310.982 78.4571C311.306 77.7133 312.038 77.1052 312.608 77.1052C313.264 77.1052 313.198 77.7334 312.428 78.8181ZM258.537 82.6312C260.855 83.9288 263.004 84.9907 263.312 84.9907C263.62 84.9907 265.087 85.7179 266.572 86.6064C271.534 89.5739 277.137 92.5932 291.949 100.282L306.651 107.913V130.622C306.651 143.112 306.36 153.332 306.003 153.332C305.435 153.332 301.563 151.422 287.713 144.311C282.7 141.737 279.296 140.034 256.995 128.937C246.01 123.473 236.376 118.347 235.586 117.547C234.536 116.486 233.969 112.398 233.485 102.391L232.822 88.6881L235.599 87.6814C237.126 87.1277 240.169 85.7197 242.361 84.5526C244.554 83.3864 247.582 81.8146 249.089 81.0602C250.596 80.3058 251.83 79.229 251.83 78.6674C251.83 78.0462 252.318 78.1601 253.076 78.9592C253.762 79.6811 256.219 81.3336 258.537 82.6312ZM387.62 94.1466C388.023 94.6522 388.359 99.6113 388.368 105.166C388.379 112.69 388.006 115.74 386.906 117.121C386.092 118.14 380.066 121.784 373.513 125.216L361.598 131.457L357.485 129.471C355.224 128.378 351.27 126.422 348.701 125.123C346.131 123.824 342.234 121.938 340.041 120.931C337.848 119.924 332.466 117.326 328.08 115.159C323.695 112.991 318.649 110.566 316.867 109.77C315.085 108.974 313.628 107.68 313.628 106.895C313.628 106.11 315.085 104.795 316.867 103.972C318.649 103.15 321.776 101.598 323.817 100.524C325.858 99.4501 332.137 96.2293 337.772 93.3668C343.405 90.5035 348.608 87.6455 349.332 87.0146C350.056 86.3829 351.304 85.8669 352.105 85.8669C352.905 85.8669 353.818 85.2755 354.133 84.5526C354.449 83.8298 355.262 83.2384 355.94 83.2384C356.619 83.2384 358.415 82.3009 359.932 81.1548L362.69 79.0713L374.789 86.149C381.444 90.0418 387.218 93.6402 387.62 94.1466ZM469.118 106.019C469.118 119.03 468.839 129.675 468.497 129.675C468.156 129.675 461.989 126.778 454.792 123.235C447.596 119.694 441.035 116.532 440.213 116.208C439.391 115.884 436.475 114.48 433.734 113.086C430.993 111.693 427.237 109.926 425.39 109.161C422.591 108.004 422.233 107.554 423.252 106.475C423.924 105.762 425.662 104.633 427.111 103.966C428.561 103.299 433.471 100.827 438.023 98.4714C442.575 96.1171 447.285 93.7121 448.489 93.1268C451.286 91.7696 454.102 90.0681 455.536 88.8712C456.154 88.3543 457.108 87.8111 457.656 87.6639C460.416 86.9218 461.086 86.4924 460.588 85.7854C460.289 85.3596 460.74 85.2457 461.591 85.5322C462.49 85.8362 463.138 85.5874 463.138 84.9381C463.138 84.3248 463.416 84.0664 463.755 84.3651C464.095 84.663 465.024 84.3345 465.819 83.6344C466.615 82.9352 467.684 82.3622 468.192 82.3622C468.74 82.3622 469.118 92.0447 469.118 106.019ZM481.097 84.4142C485.036 86.743 505.87 97.7906 516.712 103.3C520.686 105.319 523.939 107.123 523.939 107.308C523.939 107.492 522.706 108.192 521.198 108.864C516.587 110.918 502.924 117.447 495.006 121.381C490.881 123.43 484.489 126.538 480.803 128.287L474.102 131.468L474.116 108.886C474.123 96.4667 474.4 85.4174 474.73 84.3336C475.491 81.8365 476.764 81.8531 481.097 84.4142ZM149.904 97.8817C149.706 100.671 149.542 98.6151 149.54 93.3143C149.538 88.0135 149.7 85.7319 149.9 88.2439C150.101 90.7567 150.103 95.0938 149.904 97.8817ZM398.35 99.0094C399.721 99.9521 401.17 100.732 401.571 100.742C403.363 100.791 413.417 107.136 412.656 107.739C412.189 108.111 407.882 110.229 403.085 112.445L394.363 116.477V106.867C394.363 101.582 394.699 97.2658 395.111 97.2763C395.522 97.2868 396.98 98.0666 398.35 99.0094ZM209.968 99.8855C209.07 100.395 208.946 100.74 209.66 100.749C210.312 100.756 211.124 100.367 211.463 99.8855C212.227 98.7973 211.882 98.7973 209.968 99.8855ZM415.295 118.723C415.295 124.117 414.951 126.16 414.049 126.134C413.364 126.113 409.761 124.594 406.044 122.759C399.957 119.753 399.452 119.3 400.959 118.196C403.067 116.654 413.544 111.338 414.547 111.302C414.959 111.288 415.295 114.627 415.295 118.723ZM427.237 114.494C429.146 115.615 431.071 116.533 431.514 116.533C431.957 116.533 433.535 117.27 435.02 118.172C436.506 119.074 442.879 122.482 449.184 125.746C455.488 129.009 462.536 132.708 464.845 133.963L469.045 136.246L469.081 145.227C469.102 150.166 468.782 154.19 468.371 154.17C467.959 154.149 465.829 153.184 463.636 152.024C461.443 150.866 458.528 149.371 457.157 148.704C445.13 142.847 422.468 130.891 421.261 129.767C420.074 128.661 419.822 126.546 420.082 119.868C420.45 110.41 420.379 110.463 427.237 114.494ZM524.719 121.109C524.466 129.917 524.23 131.036 522.443 131.845C514.244 135.565 501.064 143.055 501.535 143.727C501.854 144.18 501.514 144.347 500.781 144.1C499.571 143.692 494.437 146.25 479.25 154.826L473.931 157.83L474.266 147.293C474.562 137.965 474.829 136.608 476.594 135.467C477.69 134.76 487.063 129.961 497.423 124.804C507.784 119.647 517.826 114.494 519.739 113.352C521.654 112.21 523.621 111.276 524.11 111.276C524.6 111.276 524.874 115.7 524.719 121.109ZM323.119 117.367C327.492 119.513 331.519 121.62 332.067 122.049C332.616 122.478 337.956 125.258 343.936 128.224C349.915 131.191 354.828 134.012 354.854 134.494C354.88 134.976 352.006 136.828 348.468 138.61C344.929 140.392 341.492 142.265 340.831 142.772C340.169 143.279 339.429 143.694 339.187 143.694C338.945 143.694 335.898 145.274 332.416 147.204C328.936 149.134 325.414 150.983 324.592 151.312C323.77 151.642 320.742 153.228 317.864 154.839L312.631 157.766L312.635 147.883C312.64 134.148 313.814 112.923 314.554 113.22C314.891 113.356 318.745 115.222 323.119 117.367ZM401.453 123.964C404.352 125.643 407.104 127.614 407.57 128.345C408.035 129.077 409.067 129.675 409.862 129.675C410.657 129.675 411.308 130.135 411.308 130.698C411.308 131.259 411.586 131.476 411.925 131.177C412.265 130.879 413.173 131.189 413.943 131.866C415.056 132.845 415.288 136.023 415.07 147.304L414.796 161.51L410.311 164.372C407.844 165.946 405.419 167.26 404.923 167.292C404.426 167.324 402.632 168.251 400.936 169.351C399.239 170.452 396.73 171.828 395.36 172.411C393.989 172.993 388.159 176.028 382.402 179.156C376.646 182.284 371.173 184.85 370.239 184.859C367.926 184.879 363.667 183.103 363.161 181.908C362.637 180.665 364.077 149.576 365.024 141.702L365.738 135.768L375.814 130.789C381.357 128.05 386.115 125.594 386.389 125.332C387.007 124.741 394.618 121.139 395.522 121.008C395.885 120.956 398.555 122.286 401.453 123.964ZM524.507 160.779C524.23 161.743 522.434 163.32 520.515 164.284C518.596 165.247 514.117 167.524 510.561 169.342L504.097 172.648L496.823 169.11C492.824 167.163 488.43 165.065 487.059 164.448C481.505 161.943 478.119 159.86 478.394 159.118C478.553 158.686 483.372 155.979 489.102 153.102C494.831 150.226 500.864 147.132 502.509 146.229C504.153 145.324 506.093 144.331 506.819 144.021C507.544 143.71 511.805 141.538 516.288 139.195L524.437 134.932L524.724 146.979C524.882 153.606 524.784 159.815 524.507 160.779ZM424.38 137.377C425.688 138.239 427.878 139.413 429.249 139.985C430.619 140.558 433.535 142.003 435.728 143.196C437.92 144.389 442.854 146.967 446.692 148.925C450.529 150.882 455.463 153.459 457.656 154.65C459.849 155.843 462.651 157.206 463.885 157.682C465.119 158.157 466.128 158.959 466.128 159.465C466.128 159.97 465.119 160.768 463.885 161.236C462.651 161.705 460.97 162.468 460.148 162.932C454.831 165.928 442.013 171.731 440.711 171.731C439.851 171.731 435.568 169.945 431.194 167.764C426.819 165.582 421.876 163.557 420.21 163.264C417.919 162.862 417.34 162.386 417.839 161.317C418.202 160.539 418.738 154.482 419.03 147.856C419.596 135.001 419.895 134.417 424.38 137.377ZM360.659 166.256C360.831 174.088 360.581 180.495 360.103 180.494C359.401 180.493 336.378 169.548 330.572 166.455C329.75 166.017 326.274 164.407 322.848 162.879C319.422 161.351 316.618 159.835 316.618 159.511C316.618 158.906 332.336 150.548 346.825 143.448C348.576 142.591 352.027 140.788 354.494 139.443L358.979 136.997L359.662 144.507C360.038 148.638 360.486 158.425 360.659 166.256ZM511.978 139.657C511.978 139.847 511.282 140.236 510.431 140.524C509.544 140.823 509.144 140.675 509.493 140.18C510.078 139.346 511.978 138.948 511.978 139.657ZM469.118 175.236C469.118 181.018 468.811 185.75 468.436 185.75C467.431 185.75 460.532 182.572 453.296 178.776L446.943 175.443L453.296 172.226C456.791 170.457 461.443 168.062 463.636 166.903C465.829 165.745 467.959 164.78 468.371 164.759C468.782 164.739 469.118 169.453 469.118 175.236ZM479.178 166.869C481.594 168.05 485.365 169.839 487.558 170.843C489.751 171.847 493.083 173.387 494.963 174.267L498.38 175.866L495.461 177.456C493.855 178.33 490.299 180.288 487.558 181.806C479.329 186.363 475.397 188.378 474.732 188.378C474.385 188.378 474.102 183.056 474.102 176.55C474.102 170.044 474.255 164.722 474.444 164.722C474.631 164.722 476.762 165.688 479.178 166.869ZM318.611 168.671C319.434 169.251 324.816 172.033 330.572 174.852C336.328 177.672 341.262 180.213 341.536 180.501C341.81 180.787 343.762 181.79 345.872 182.729C347.983 183.667 351.123 185.108 352.849 185.928C354.577 186.749 356.573 187.247 357.287 187.033C358 186.82 358.31 187.036 357.975 187.512C357.641 187.988 358.047 188.378 358.881 188.378C359.713 188.378 361.421 189.317 362.677 190.466C365.329 192.892 377.596 199.768 379.271 199.768C379.897 199.768 380.409 200.09 380.409 200.482C380.409 200.875 381.888 201.816 383.695 202.574L386.982 203.951L388.2 227.488C388.87 240.433 389.409 252.485 389.399 254.27L389.38 257.516L378.178 251.934C372.017 248.865 366.396 245.584 365.685 244.642C364.748 243.402 364.252 236.807 363.882 220.693C363.313 195.86 362.872 191.007 361.185 191.007C359.803 191.007 341.186 200.749 340.706 201.723C340.523 202.094 339.992 202.397 339.526 202.397C338.494 202.397 328.597 207.663 326.764 209.187C326.039 209.79 324.955 210.282 324.355 210.282C323.755 210.282 323.548 210.533 323.896 210.839C324.245 211.145 325.777 210.652 327.302 209.744C328.826 208.835 331.868 207.262 334.061 206.249C344.214 201.554 348.164 199.683 350.009 198.697C351.105 198.11 353.725 196.702 355.832 195.567C357.938 194.433 359.79 193.632 359.948 193.789C360.105 193.945 360.001 205.425 359.715 219.299L359.194 244.525L354.103 247.412C351.303 248.999 347.482 251.114 345.611 252.111L342.211 253.922L329.165 246.899C321.99 243.036 315.78 239.427 315.364 238.879C314.948 238.33 314.65 232.559 314.698 226.053C314.747 219.548 314.458 203.47 314.055 190.326C313.344 167.068 313.375 166.443 315.221 167.022C316.263 167.349 317.789 168.091 318.611 168.671ZM426.539 170.044C435.395 174.438 436.093 175.004 433.651 175.805C432.601 176.15 425.084 179.711 416.948 183.72C408.812 187.727 401.963 191.007 401.728 191.007C401.493 191.007 399.524 191.992 397.353 193.197C395.183 194.402 392.7 195.388 391.837 195.388C390.388 195.388 380.867 191.236 375.73 188.364C373.647 187.2 374.172 186.834 386.694 180.719C393.928 177.186 400.518 173.923 401.34 173.467C402.163 173.011 404.63 171.818 406.822 170.815C409.015 169.812 411.931 168.431 413.301 167.746C417.055 165.869 418.698 166.154 426.539 170.044ZM454.974 184.076C461.931 187.493 467.777 190.421 467.965 190.584C468.153 190.745 467.032 191.514 465.473 192.291C463.914 193.068 460.975 194.576 458.942 195.642C456.907 196.706 451.429 199.513 446.769 201.877C442.109 204.243 438.572 206.571 438.91 207.051C439.248 207.531 439.047 207.665 438.464 207.348C436.864 206.479 434.047 207.718 434.623 209.036C434.922 209.722 434.607 210.018 433.85 209.762C433.146 209.525 432.571 209.9 432.571 210.598C432.571 211.633 433.039 211.682 435.147 210.862C439.436 209.194 444.157 206.156 443.44 205.526C443.069 205.2 443.521 205.188 444.444 205.499C445.408 205.824 447.304 205.343 448.9 204.369C450.427 203.437 453.021 202.064 454.666 201.318C462.292 197.861 465.584 196.216 466.515 195.398C467.07 194.91 467.882 194.511 468.321 194.511C468.759 194.511 469.118 203.988 469.118 215.57C469.118 238.763 469.004 239.251 462.807 242.531C442.542 253.256 422.579 264.017 421.534 264.779C420.818 265.302 420.073 265.575 419.882 265.387C419.69 265.198 419.235 255.974 418.871 244.891C417.982 217.819 418.063 218.118 410.809 215.148C408.617 214.25 406.104 212.795 405.226 211.915C404.349 211.034 403.339 210.57 402.983 210.883C402.628 211.195 402.337 211.003 402.337 210.456C402.337 209.888 401.625 209.702 400.679 210.02C399.563 210.397 399.256 210.245 399.741 209.555C400.177 208.934 399.826 208.53 398.849 208.53C397.961 208.53 397.493 208.164 397.808 207.717C398.122 207.27 397.476 206.652 396.372 206.344C392.732 205.329 394.039 202.557 399.645 199.405C406.479 195.563 413.033 192.158 416.79 190.5C418.434 189.774 424.714 186.648 430.744 183.552C436.774 180.458 441.847 177.912 442.016 177.895C442.185 177.878 448.016 180.66 454.974 184.076ZM484.069 197.962C487.084 199.712 492.018 202.43 495.033 204.002C498.048 205.575 505.898 209.741 512.476 213.261L524.437 219.663L524.703 242.212C524.85 254.614 524.601 264.627 524.152 264.464C523.701 264.301 513.154 259.116 500.713 252.943C488.27 246.77 477.689 241.938 477.198 242.205C475.227 243.275 474.717 238.644 474.321 216.12L473.909 192.607L476.248 193.692C477.535 194.29 481.054 196.211 484.069 197.962ZM392.868 200.645C392.529 201.126 391.804 201.521 391.255 201.521C390.707 201.521 390.536 201.126 390.875 200.645C391.214 200.163 391.939 199.768 392.487 199.768C393.036 199.768 393.207 200.163 392.868 200.645ZM401.219 212.216C404.301 213.762 407.271 215.362 407.819 215.772C408.367 216.183 410.273 217.279 412.055 218.207L415.295 219.895V243.054C415.295 255.792 415.023 266.837 414.69 267.599C413.89 269.43 411.719 269.352 408.471 267.376C407.016 266.49 405.153 265.498 404.331 265.172C403.508 264.844 400.817 263.473 398.35 262.124L393.865 259.672L393.559 240.891C393.266 222.938 393.918 209.406 395.075 209.406C395.372 209.406 398.137 210.671 401.219 212.216ZM428.758 211.149C428.409 211.645 428.808 211.792 429.695 211.493C431.422 210.911 431.738 210.282 430.304 210.282C429.788 210.282 429.092 210.672 428.758 211.149ZM537.893 212.379C537.893 212.568 538.589 212.958 539.44 213.246C540.327 213.544 540.727 213.397 540.378 212.901C539.793 212.068 537.893 211.669 537.893 212.379ZM318.12 213.777C317.771 214.273 318.171 214.421 319.058 214.122C320.784 213.539 321.1 212.911 319.667 212.911C319.151 212.911 318.455 213.301 318.12 213.777ZM428.252 213.787C427.43 214.254 427.206 214.636 427.754 214.636C428.302 214.636 429.423 214.254 430.246 213.787C431.068 213.32 431.292 212.938 430.744 212.938C430.196 212.938 429.074 213.32 428.252 213.787ZM475.099 250.48C475.099 250.903 476.556 251.757 478.338 252.376C480.12 252.996 482.25 253.979 483.073 254.559C483.895 255.14 487.932 257.177 492.043 259.087C496.155 260.996 502.883 264.212 506.994 266.233C511.106 268.256 516.376 270.766 518.706 271.813C521.035 272.859 522.942 273.96 522.942 274.26C522.942 274.56 519.099 276.748 514.403 279.124C509.706 281.499 505.109 283.841 504.186 284.329C503.263 284.817 499.145 286.932 495.033 289.029C490.922 291.126 485.764 293.854 483.571 295.09C481.378 296.326 479.474 297.268 479.34 297.184C479.205 297.1 477.763 298.256 476.134 299.754L473.174 302.476L470.233 300.845C468.615 299.947 463.553 297.011 458.985 294.32C452.001 290.206 443.492 285.722 427.54 277.747C420.567 274.261 420.563 274.274 430.025 269.622C434.806 267.273 443.203 263.247 448.685 260.677C454.167 258.107 461.344 254.623 464.633 252.936C470.394 249.979 475.099 248.875 475.099 250.48ZM431.242 264.949C431.242 265.138 430.547 265.528 429.695 265.815C428.808 266.114 428.409 265.967 428.758 265.471C429.343 264.638 431.242 264.239 431.242 264.949ZM426.259 267.648C426.259 268.361 420.122 270.893 419.572 270.408C419.285 270.156 420.559 269.371 422.405 268.663C426.54 267.077 426.259 267.151 426.259 267.648ZM411.864 275.037C411.511 275.538 409.56 276.628 407.528 277.459C405.495 278.29 403.608 279.227 403.334 279.542C402.57 280.418 398.619 282.128 397.36 282.128C395.718 282.128 397.207 280.401 399.693 279.424C400.873 278.96 404.081 277.487 406.822 276.151C411.917 273.668 412.993 273.429 411.864 275.037ZM416.291 283.895V291.796L411.169 289.371C408.352 288.038 405.1 286.461 403.943 285.866C402.786 285.271 401.394 284.648 400.851 284.48C400.308 284.314 400.556 283.617 401.403 282.934C403.083 281.579 414.334 276.084 415.544 276.029C415.955 276.011 416.291 279.55 416.291 283.895ZM538.45 277.357C540.274 278.643 540.242 278.66 537.893 277.677C534.842 276.4 534.277 275.995 535.543 275.995C536.078 275.995 537.386 276.608 538.45 277.357ZM524.935 285.414L524.934 293.08L515.217 297.853C509.872 300.478 505.275 302.852 505.001 303.128C504.727 303.404 503.381 304.134 502.01 304.75C500.64 305.366 497.724 306.82 495.532 307.983C493.339 309.145 489.975 310.884 488.056 311.845C486.137 312.806 484.919 313.609 485.35 313.631C486.188 313.673 500.845 306.984 502.509 305.8C503.76 304.91 510.981 302.257 510.981 302.687C510.981 302.862 507.953 304.492 504.253 306.309C500.553 308.126 496.962 310.106 496.273 310.708C495.584 311.31 494.127 312.053 493.034 312.357C491.94 312.662 491.046 313.253 491.046 313.67C491.046 314.087 498.56 310.72 507.742 306.188L524.437 297.95L524.722 311.724C524.879 319.3 524.762 326.371 524.463 327.438C524.151 328.55 521.904 330.405 519.194 331.786C516.596 333.111 514.32 334.505 514.138 334.885C513.954 335.264 513.439 335.574 512.992 335.574C512.544 335.574 509.329 337.134 505.848 339.039C497.368 343.683 475.045 354.85 474.243 354.85C473.892 354.851 473.749 343.515 473.926 329.66C474.242 305.094 474.304 304.426 476.418 302.718C477.611 301.754 480.157 300.267 482.076 299.414C483.994 298.56 487.358 296.898 489.551 295.721C491.744 294.543 494.884 292.958 496.528 292.199C498.173 291.44 505.125 287.916 511.978 284.369C518.83 280.822 524.549 277.881 524.686 277.833C524.824 277.786 524.935 281.197 524.935 285.414ZM440.445 288.48C451.352 293.902 461.257 298.815 462.455 299.401C463.653 299.985 465.306 300.888 466.128 301.405C466.95 301.923 468.2 302.66 468.906 303.042C469.847 303.552 470.112 306.095 469.903 312.596L469.617 321.455L455.164 314.087C447.215 310.035 438.805 305.932 436.475 304.969C434.146 304.006 432.239 303.027 432.239 302.794C432.239 302.13 439.196 304.851 442.092 306.647C443.525 307.538 445.82 308.498 447.19 308.782L449.682 309.299L447.19 308.223C445.82 307.631 444.474 306.916 444.2 306.633C443.926 306.35 440.568 304.593 436.738 302.727C432.909 300.861 429.321 298.982 428.764 298.551C428.208 298.12 425.96 296.898 423.767 295.836L419.78 293.906L419.492 286.264C419.333 282.062 419.522 278.623 419.91 278.623C420.297 278.623 429.539 283.059 440.445 288.48ZM398.35 285.432C398.35 285.803 400.369 287.077 402.835 288.261C405.302 289.446 407.321 290.742 407.321 291.142C407.321 291.542 407.769 291.626 408.318 291.328C408.866 291.03 409.314 291.246 409.314 291.808C409.314 292.371 410.008 292.596 410.861 292.307C411.872 291.966 412.161 292.138 411.694 292.801C411.219 293.477 411.53 293.63 412.627 293.261C413.643 292.918 414.183 293.112 414.037 293.769C413.906 294.354 414.305 294.75 414.923 294.649C415.691 294.524 416.086 297.301 416.171 303.411C416.24 308.331 416.579 316.395 416.927 321.331L417.559 330.307L432.917 337.867C441.363 342.024 448.505 345.224 448.786 344.977C449.068 344.73 447.927 343.993 446.25 343.341C444.575 342.689 443.203 341.905 443.203 341.599C443.203 341.294 441.858 340.553 440.213 339.955C438.568 339.357 437.223 338.52 437.223 338.097C437.223 337.672 436.764 337.326 436.205 337.326C435.24 337.326 431.439 335.355 423.019 330.487L419.282 328.326V313.551C419.282 297.287 419.243 297.371 425.262 300.726C427.181 301.796 431.776 304.259 435.474 306.2C451.205 314.454 461.853 320.243 464.865 322.179L468.088 324.25L468.099 361.523L468.11 398.795L464.876 397.09C460.933 395.011 447.706 388.257 443.976 386.417C442.481 385.68 432.709 380.74 422.259 375.44C411.809 370.139 401.792 365.144 399.998 364.34C393.43 361.397 393.729 363.502 392.966 314.754C392.599 291.329 392.753 287.174 394.02 286.059C395.582 284.686 398.35 284.285 398.35 285.432ZM344.527 292.642C345.349 293.109 346.47 293.491 347.018 293.491C347.567 293.491 347.342 293.109 346.52 292.642C345.698 292.175 344.576 291.793 344.028 291.793C343.48 291.793 343.704 292.175 344.527 292.642ZM427.255 299.651C428.078 300.118 428.302 300.5 427.754 300.5C427.206 300.5 426.084 300.118 425.262 299.651C424.44 299.184 424.215 298.802 424.764 298.802C425.312 298.802 426.433 299.184 427.255 299.651ZM326.585 315.422C325.687 315.932 325.564 316.276 326.277 316.285C326.93 316.292 327.742 315.904 328.08 315.422C328.845 314.334 328.5 314.334 326.585 315.422ZM486.063 315.86C484.692 316.549 484.019 317.112 484.568 317.112C485.116 317.112 486.686 316.549 488.056 315.86C489.427 315.172 490.099 314.608 489.551 314.608C489.003 314.608 487.433 315.172 486.063 315.86ZM472.846 336.199C472.648 338.988 472.483 336.932 472.481 331.631C472.479 326.331 472.642 324.049 472.842 326.561C473.042 329.074 473.044 333.411 472.846 336.199ZM451.177 346.964C451.999 347.431 453.121 347.813 453.669 347.813C454.217 347.813 453.993 347.431 453.171 346.964C452.348 346.497 451.227 346.115 450.679 346.115C450.13 346.115 450.355 346.497 451.177 346.964ZM502.645 373.998C507.654 376.478 512.364 378.512 513.111 378.519C513.859 378.527 511.554 379.975 507.991 381.737C504.428 383.498 501.288 385.202 501.014 385.522C500.74 385.842 497.6 387.574 494.037 389.371C490.473 391.167 485.539 393.787 483.073 395.195C476.2 399.114 474.713 399.552 473.923 397.891C473.55 397.108 473.214 388.106 473.175 377.887L473.105 359.305L483.322 364.398C488.94 367.199 497.637 371.52 502.645 373.998ZM392.619 363.315C391.934 363.559 390.813 363.559 390.127 363.315C389.442 363.073 390.003 362.874 391.373 362.874C392.744 362.874 393.305 363.073 392.619 363.315ZM371.438 433.705C372.261 434.172 373.382 434.554 373.93 434.554C374.478 434.554 374.254 434.172 373.432 433.705C372.61 433.238 371.488 432.856 370.94 432.856C370.392 432.856 370.616 433.238 371.438 433.705ZM401.34 437.209C400.442 437.719 400.319 438.064 401.032 438.072C401.685 438.079 402.497 437.691 402.835 437.209C403.6 436.121 403.255 436.121 401.34 437.209ZM531.646 515.297C532.323 515.896 533.128 516.165 533.433 515.895C533.74 515.625 533.187 515.135 532.205 514.806C530.784 514.331 530.669 514.431 531.646 515.297Z" fill="#DCE9FF" fill-opacity="0.3"/>
</svg>
