<svg width="197" height="58" viewBox="0 0 197 58" fill="none" xmlns="http://www.w3.org/2000/svg">
<path d="M195.906 51.311C195.906 54.4019 193.398 56.9056 190.296 56.9056H6.71164C3.61116 56.9056 1.09448 54.4019 1.09448 51.311V6.69611C1.09448 3.60668 3.61116 1.09424 6.71164 1.09424H190.294C193.398 1.09424 195.904 3.60668 195.904 6.69611L195.906 51.311Z" fill="black"/>
<path d="M189.704 1.16182C193.082 1.16182 195.831 3.89325 195.831 7.25V50.75C195.831 54.1068 193.082 56.8382 189.704 56.8382H7.2963C3.91811 56.8382 1.16923 54.1068 1.16923 50.75V7.25C1.16923 3.89325 3.91811 1.16182 7.2963 1.16182H189.704ZM189.704 3.8147e-06H7.2963C3.28516 3.8147e-06 0 3.26432 0 7.25V50.75C0 54.7357 3.28516 58 7.2963 58H189.704C193.715 58 197 54.7357 197 50.75V7.25C197 3.26432 193.715 3.8147e-06 189.704 3.8147e-06Z" fill="#A6A6A6"/>
<path d="M43.9646 28.6868C43.9223 24.0134 47.8156 21.7398 47.9936 21.634C45.7887 18.4396 42.3711 18.0032 41.1701 17.9684C38.2998 17.6682 35.5155 19.675 34.0533 19.675C32.562 19.675 30.3103 17.9974 27.8836 18.0467C24.7608 18.0945 21.8393 19.8911 20.2371 22.6809C16.9304 28.3692 19.3965 36.7285 22.5646 41.3264C24.1493 43.5783 26.0011 46.0926 28.425 46.0041C30.7963 45.907 31.682 44.5019 34.5436 44.5019C37.379 44.5019 38.2107 46.0041 40.6827 45.9476C43.2277 45.907 44.8299 43.6856 46.3592 41.4134C48.1906 38.8324 48.9261 36.2906 48.9553 36.1601C48.8954 36.1398 44.0128 34.2881 43.9646 28.6868Z" fill="white"/>
<path d="M39.295 14.9437C40.5704 13.3588 41.443 11.2027 41.2008 9.01465C39.3548 9.09585 37.0463 10.2834 35.7169 11.8334C34.5407 13.1993 33.49 15.4381 33.7615 17.5435C35.8351 17.6972 37.9641 16.5039 39.295 14.9437Z" fill="white"/>
<path d="M71.5767 14.5129C71.5767 16.2195 71.0616 17.5042 70.0328 18.367C69.0799 19.163 67.7257 19.5618 65.9717 19.5618C65.1019 19.5618 64.3577 19.5241 63.7346 19.4487V10.1237C64.5474 9.99321 65.423 9.92651 66.3686 9.92651C68.0394 9.92651 69.2988 10.2876 70.1481 11.0097C71.0995 11.826 71.5767 12.9933 71.5767 14.5129ZM69.9642 14.5549C69.9642 13.4486 69.6694 12.6003 69.0799 12.0087C68.4904 11.4186 67.6294 11.1228 66.4955 11.1228C66.014 11.1228 65.6039 11.1547 65.2639 11.2214V18.3104C65.4522 18.3394 65.7966 18.3525 66.2971 18.3525C67.4674 18.3525 68.3707 18.0291 69.0069 17.3824C69.6432 16.7357 69.9642 15.7932 69.9642 14.5549Z" fill="white"/>
<path d="M80.1266 16.0035C80.1266 17.0547 79.8245 17.916 79.2204 18.5917C78.587 19.2863 77.748 19.6328 76.7002 19.6328C75.6904 19.6328 74.8864 19.3008 74.2866 18.6338C73.6883 17.9682 73.3892 17.1287 73.3892 16.1166C73.3892 15.0581 73.6971 14.1895 74.3158 13.5153C74.9345 12.841 75.7663 12.5032 76.814 12.5032C77.8239 12.5032 78.6352 12.8352 79.2495 13.5008C79.8333 14.1475 80.1266 14.9827 80.1266 16.0035ZM78.5403 16.0528C78.5403 15.422 78.4032 14.8812 78.1303 14.4302C77.8093 13.885 77.3525 13.6124 76.7586 13.6124C76.1442 13.6124 75.6773 13.885 75.3562 14.4302C75.0819 14.8812 74.9462 15.4307 74.9462 16.0803C74.9462 16.7111 75.0834 17.2519 75.3562 17.7029C75.6875 18.2481 76.1486 18.5207 76.744 18.5207C77.3277 18.5207 77.7859 18.2437 78.1157 17.6884C78.3988 17.2287 78.5403 16.6835 78.5403 16.0528Z" fill="white"/>
<path d="M91.5905 12.6426L89.4381 19.4779H88.0372L87.1456 16.5097C86.9194 15.7688 86.7356 15.0322 86.5926 14.3014H86.5648C86.432 15.0525 86.2482 15.7876 86.0118 16.5097L85.0647 19.4779H83.6478L81.6238 12.6426H83.1954L83.9732 15.892C84.1614 16.6605 84.3161 17.3928 84.4401 18.0859H84.4679C84.5817 17.5146 84.7699 16.7867 85.0355 15.9065L86.0118 12.644H87.258L88.1934 15.8369C88.4195 16.6156 88.6034 17.3652 88.745 18.0873H88.7873C88.8909 17.3841 89.047 16.6344 89.2542 15.8369L90.0889 12.644H91.5905V12.6426Z" fill="white"/>
<path d="M99.5187 19.4779H97.9894V15.5629C97.9894 14.3565 97.5282 13.7533 96.6031 13.7533C96.1492 13.7533 95.783 13.9186 95.4984 14.2506C95.2168 14.5827 95.0738 14.9742 95.0738 15.4222V19.4764H93.5445V14.5957C93.5445 13.9954 93.5255 13.3444 93.489 12.6397H94.833L94.9045 13.7083H94.9468C95.1248 13.3763 95.3904 13.1022 95.7392 12.8833C96.1536 12.6281 96.6177 12.499 97.1255 12.499C97.7675 12.499 98.3016 12.7049 98.7263 13.1182C99.2545 13.6242 99.5187 14.3797 99.5187 15.3831V19.4779Z" fill="white"/>
<path d="M103.736 19.4778H102.208V9.5061H103.736V19.4778Z" fill="white"/>
<path d="M112.739 16.0035C112.739 17.0547 112.437 17.916 111.833 18.5917C111.2 19.2863 110.359 19.6328 109.313 19.6328C108.302 19.6328 107.498 19.3008 106.899 18.6338C106.301 17.9682 106.002 17.1287 106.002 16.1166C106.002 15.0581 106.31 14.1895 106.929 13.5153C107.547 12.841 108.379 12.5032 109.425 12.5032C110.437 12.5032 111.247 12.8352 111.862 13.5008C112.446 14.1475 112.739 14.9827 112.739 16.0035ZM111.152 16.0528C111.152 15.422 111.015 14.8812 110.742 14.4302C110.422 13.885 109.964 13.6124 109.371 13.6124C108.756 13.6124 108.289 13.885 107.969 14.4302C107.695 14.8812 107.559 15.4307 107.559 16.0803C107.559 16.7111 107.696 17.2519 107.969 17.7029C108.3 18.2481 108.761 18.5207 109.357 18.5207C109.941 18.5207 110.397 18.2437 110.727 17.6884C111.012 17.2287 111.152 16.6835 111.152 16.0528Z" fill="white"/>
<path d="M120.141 19.4777H118.768L118.654 18.6903H118.611C118.142 19.3182 117.472 19.6328 116.602 19.6328C115.953 19.6328 115.427 19.4255 115.032 19.0137C114.673 18.6396 114.493 18.1741 114.493 17.6217C114.493 16.7865 114.844 16.1499 115.548 15.7091C116.252 15.2683 117.241 15.0523 118.515 15.0624V14.9348C118.515 14.0344 118.039 13.5849 117.087 13.5849C116.408 13.5849 115.81 13.7545 115.293 14.0909L114.982 13.0933C115.621 12.7004 116.411 12.5032 117.342 12.5032C119.14 12.5032 120.042 13.4457 120.042 15.3307V17.8479C120.042 18.5308 120.075 19.0746 120.141 19.4777ZM118.553 17.1287V16.0745C116.866 16.0455 116.023 16.5052 116.023 17.452C116.023 17.8087 116.119 18.0755 116.316 18.2539C116.513 18.4322 116.764 18.5207 117.063 18.5207C117.399 18.5207 117.713 18.4148 117.999 18.2046C118.286 17.9929 118.463 17.7246 118.528 17.3955C118.544 17.3215 118.553 17.2316 118.553 17.1287Z" fill="white"/>
<path d="M128.831 19.4778H127.474L127.402 18.3801H127.36C126.926 19.2153 126.188 19.6329 125.151 19.6329C124.322 19.6329 123.631 19.3096 123.084 18.6629C122.537 18.0162 122.264 17.1766 122.264 16.1457C122.264 15.0393 122.56 14.1432 123.156 13.4588C123.732 12.8208 124.438 12.5018 125.279 12.5018C126.203 12.5018 126.849 12.8107 127.217 13.4298H127.246V9.5061H128.777V17.6363C128.777 18.3018 128.794 18.9152 128.831 19.4778ZM127.246 16.5952V15.4555C127.246 15.2583 127.231 15.0988 127.204 14.977C127.118 14.6116 126.932 14.3042 126.651 14.0562C126.366 13.8083 126.023 13.6836 125.628 13.6836C125.057 13.6836 124.611 13.9083 124.282 14.3593C123.957 14.8102 123.792 15.3859 123.792 16.0891C123.792 16.7648 123.948 17.3129 124.262 17.7349C124.593 18.1844 125.04 18.4091 125.599 18.4091C126.101 18.4091 126.502 18.2221 126.807 17.8465C127.102 17.5 127.246 17.0824 127.246 16.5952Z" fill="white"/>
<path d="M141.91 16.0035C141.91 17.0547 141.608 17.916 141.004 18.5917C140.37 19.2863 139.533 19.6328 138.484 19.6328C137.475 19.6328 136.671 19.3008 136.07 18.6338C135.472 17.9682 135.173 17.1287 135.173 16.1166C135.173 15.0581 135.481 14.1895 136.099 13.5153C136.718 12.841 137.55 12.5032 138.599 12.5032C139.607 12.5032 140.42 12.8352 141.033 13.5008C141.617 14.1475 141.91 14.9827 141.91 16.0035ZM140.325 16.0528C140.325 15.422 140.188 14.8812 139.915 14.4302C139.593 13.885 139.137 13.6124 138.542 13.6124C137.929 13.6124 137.462 13.885 137.14 14.4302C136.865 14.8812 136.73 15.4307 136.73 16.0803C136.73 16.7111 136.867 17.2519 137.14 17.7029C137.471 18.2481 137.932 18.5207 138.527 18.5207C139.111 18.5207 139.571 18.2437 139.901 17.6884C140.182 17.2287 140.325 16.6835 140.325 16.0528Z" fill="white"/>
<path d="M150.133 19.4779H148.605V15.5629C148.605 14.3565 148.144 13.7533 147.217 13.7533C146.764 13.7533 146.397 13.9186 146.114 14.2506C145.831 14.5827 145.689 14.9742 145.689 15.4222V19.4764H144.159V14.5957C144.159 13.9954 144.141 13.3444 144.105 12.6397H145.447L145.519 13.7083H145.561C145.741 13.3763 146.006 13.1022 146.353 12.8833C146.769 12.6281 147.232 12.499 147.741 12.499C148.382 12.499 148.916 12.7049 149.341 13.1182C149.87 13.6242 150.133 14.3797 150.133 15.3831V19.4779Z" fill="white"/>
<path d="M160.425 13.7807H158.741V17.1012C158.741 17.9451 159.04 18.3671 159.633 18.3671C159.907 18.3671 160.135 18.3439 160.314 18.296L160.354 19.4488C160.052 19.5619 159.655 19.6184 159.166 19.6184C158.562 19.6184 158.092 19.4357 157.752 19.0703C157.41 18.7049 157.241 18.0901 157.241 17.2274V13.7807H156.236V12.6425H157.241V11.3897L158.74 10.9402V12.641H160.424V13.7807H160.425Z" fill="white"/>
<path d="M168.521 19.4778H166.99V15.5918C166.99 14.3665 166.529 13.7532 165.605 13.7532C164.896 13.7532 164.412 14.1084 164.146 14.8189C164.101 14.9683 164.075 15.151 164.075 15.3656V19.4763H162.547V9.5061H164.075V13.6256H164.104C164.585 12.8759 165.276 12.5018 166.17 12.5018C166.804 12.5018 167.327 12.7077 167.743 13.121C168.261 13.6357 168.521 14.4013 168.521 15.4134V19.4778Z" fill="white"/>
<path d="M176.872 15.7368C176.872 16.0094 176.852 16.2385 176.815 16.4255H172.229C172.249 17.1012 172.468 17.616 172.893 17.9727C173.281 18.2917 173.782 18.4512 174.395 18.4512C175.073 18.4512 175.692 18.3439 176.249 18.1278L176.489 19.1834C175.836 19.4647 175.069 19.6054 174.18 19.6054C173.115 19.6054 172.276 19.2936 171.669 18.6701C171.059 18.0466 170.757 17.21 170.757 16.1602C170.757 15.1292 171.038 14.2708 171.606 13.5864C172.198 12.8556 172.999 12.4902 174.011 12.4902C175 12.4902 175.752 12.8556 176.259 13.5864C176.67 14.1664 176.872 14.8842 176.872 15.7368ZM175.413 15.3438C175.425 14.8929 175.324 14.5043 175.117 14.1766C174.851 13.7546 174.447 13.5429 173.9 13.5429C173.401 13.5429 172.994 13.7488 172.683 14.1621C172.429 14.4912 172.279 14.8842 172.229 15.3438H175.413Z" fill="white"/>
<path d="M78.282 45.6809H74.968L73.1527 40.0128H66.8428L65.1136 45.6809H61.8872L68.1387 26.3843H71.9999L78.282 45.6809ZM72.6055 37.6348L70.9638 32.5961C70.7901 32.0813 70.4647 30.8691 69.9846 28.9609H69.9263C69.7351 29.7816 69.4272 30.9938 69.004 32.5961L67.3915 37.6348H72.6055Z" fill="white"/>
<path d="M94.3586 38.5526C94.3586 40.919 93.715 42.7895 92.4279 44.1627C91.2751 45.385 89.8436 45.9955 88.1348 45.9955C86.2903 45.9955 84.9653 45.3372 84.1583 44.0206H84.1V51.3503H80.9888V36.3472C80.9888 34.8595 80.9494 33.3326 80.8735 31.7666H83.6096L83.7833 33.9721H83.8417C84.8792 32.3104 86.4537 31.481 88.5667 31.481C90.2186 31.481 91.5976 32.1291 92.7008 33.4269C93.8069 34.7261 94.3586 36.4342 94.3586 38.5526ZM91.189 38.6657C91.189 37.3114 90.8826 36.1949 90.2668 35.3162C89.5941 34.3998 88.6908 33.9416 87.5584 33.9416C86.7908 33.9416 86.0933 34.1968 85.4702 34.7C84.8456 35.2075 84.437 35.8701 84.2459 36.6908C84.1496 37.0736 84.1014 37.3868 84.1014 37.6333V39.9533C84.1014 40.9654 84.4137 41.8195 85.0383 42.5169C85.6628 43.2144 86.4742 43.5624 87.4723 43.5624C88.6441 43.5624 89.5561 43.1129 90.2084 42.2168C90.8622 41.3192 91.189 40.136 91.189 38.6657Z" fill="white"/>
<path d="M110.465 38.5526C110.465 40.919 109.821 42.7895 108.532 44.1627C107.381 45.385 105.95 45.9955 104.241 45.9955C102.396 45.9955 101.071 45.3372 100.266 44.0206H100.207V51.3503H97.0962V36.3472C97.0962 34.8595 97.0568 33.3326 96.981 31.7666H99.7171L99.8907 33.9721H99.9491C100.985 32.3104 102.56 31.481 104.674 31.481C106.325 31.481 107.704 32.1291 108.81 33.4269C109.911 34.7261 110.465 36.4342 110.465 38.5526ZM107.295 38.6657C107.295 37.3114 106.987 36.1949 106.371 35.3162C105.699 34.3998 104.798 33.9416 103.664 33.9416C102.895 33.9416 102.199 34.1968 101.575 34.7C100.95 35.2075 100.543 35.8701 100.352 36.6908C100.257 37.0736 100.207 37.3868 100.207 37.6333V39.9533C100.207 40.9654 100.52 41.8195 101.141 42.5169C101.766 43.2129 102.577 43.5624 103.578 43.5624C104.75 43.5624 105.662 43.1129 106.314 42.2168C106.968 41.3192 107.295 40.136 107.295 38.6657Z" fill="white"/>
<path d="M128.472 40.2695C128.472 41.9109 127.898 43.2464 126.747 44.2773C125.482 45.404 123.72 45.9666 121.457 45.9666C119.367 45.9666 117.692 45.5664 116.424 44.7645L117.145 42.1879C118.511 43.0086 120.009 43.4204 121.642 43.4204C122.814 43.4204 123.726 43.1565 124.381 42.6316C125.034 42.1067 125.359 41.402 125.359 40.5233C125.359 39.7403 125.091 39.0805 124.552 38.5455C124.017 38.0104 123.122 37.5131 121.873 37.0534C118.473 35.7934 116.774 33.9475 116.774 31.5202C116.774 29.9339 117.37 28.6333 118.562 27.6212C119.75 26.6076 121.334 26.1016 123.316 26.1016C125.083 26.1016 126.551 26.4075 127.723 27.018L126.945 29.5381C125.851 28.9465 124.613 28.6507 123.229 28.6507C122.134 28.6507 121.279 28.9189 120.666 29.4525C120.148 29.9296 119.888 30.511 119.888 31.1998C119.888 31.9625 120.185 32.5932 120.78 33.0891C121.298 33.5473 122.239 34.0432 123.605 34.5783C125.276 35.2467 126.503 36.0283 127.293 36.9244C128.079 37.8176 128.472 38.9355 128.472 40.2695Z" fill="white"/>
<path d="M138.758 34.0868H135.329V40.8423C135.329 42.5606 135.933 43.419 137.144 43.419C137.7 43.419 138.161 43.3711 138.526 43.2754L138.612 45.623C137.999 45.8506 137.192 45.9652 136.193 45.9652C134.964 45.9652 134.004 45.5925 133.311 44.8487C132.62 44.1034 132.273 42.8535 132.273 41.0975V34.0839H130.23V31.7639H132.273V29.2162L135.329 28.2998V31.7639H138.758V34.0868Z" fill="white"/>
<path d="M154.23 38.6092C154.23 40.7479 153.615 42.5039 152.386 43.877C151.097 45.2908 149.387 45.9955 147.255 45.9955C145.201 45.9955 143.565 45.3183 142.345 43.964C141.125 42.6097 140.515 40.9002 140.515 38.8397C140.515 36.6836 141.142 34.9175 142.402 33.5443C143.658 32.1697 145.354 31.4824 147.486 31.4824C149.54 31.4824 151.194 32.1596 152.441 33.5153C153.635 34.8305 154.23 36.5284 154.23 38.6092ZM151.003 38.7092C151.003 37.426 150.727 36.3254 150.168 35.4076C149.516 34.2969 148.583 33.743 147.375 33.743C146.124 33.743 145.174 34.2983 144.522 35.4076C143.963 36.3269 143.687 37.4448 143.687 38.7672C143.687 40.0505 143.963 41.151 144.522 42.0674C145.195 43.1781 146.134 43.732 147.347 43.732C148.535 43.732 149.467 43.1665 150.14 42.0384C150.714 41.1032 151.003 39.991 151.003 38.7092Z" fill="white"/>
<path d="M164.343 34.4854C164.035 34.4288 163.707 34.3998 163.363 34.3998C162.268 34.3998 161.422 34.8102 160.826 35.6323C160.308 36.3573 160.049 37.2737 160.049 38.3801V45.6808H156.939L156.968 36.1485C156.968 34.5448 156.929 33.0847 156.851 31.7681H159.561L159.675 34.4303H159.761C160.089 33.5153 160.607 32.7787 161.317 32.2263C162.01 31.7289 162.758 31.481 163.565 31.481C163.853 31.481 164.113 31.5013 164.343 31.5375V34.4854Z" fill="white"/>
<path d="M178.257 38.0656C178.257 38.6195 178.221 39.0864 178.143 39.4678H168.81C168.847 40.8424 169.297 41.8936 170.164 42.6186C170.951 43.2668 171.968 43.5916 173.217 43.5916C174.599 43.5916 175.86 43.3726 176.994 42.9333L177.481 45.0793C176.156 45.6535 174.592 45.9391 172.787 45.9391C170.615 45.9391 168.911 45.304 167.67 44.0353C166.433 42.7665 165.813 41.0628 165.813 38.9255C165.813 36.8273 166.389 35.0801 167.543 33.6866C168.752 32.1989 170.385 31.4551 172.439 31.4551C174.457 31.4551 175.985 32.1989 177.023 33.6866C177.844 34.8684 178.257 36.33 178.257 38.0656ZM175.291 37.2638C175.311 36.3474 175.108 35.5557 174.686 34.8872C174.148 34.0274 173.321 33.5982 172.207 33.5982C171.19 33.5982 170.363 34.0172 169.731 34.8582C169.213 35.5267 168.905 36.3285 168.81 37.2623H175.291V37.2638Z" fill="white"/>
</svg>
