<svg width="118" height="68" viewBox="0 0 118 68" fill="none" xmlns="http://www.w3.org/2000/svg">
<path d="M0 50.2269C0 59.5557 7.58497 67.1167 16.9408 67.1167H91.8999C106.314 67.1167 118 55.4675 118 41.0964C118 26.7262 106.314 15.0762 91.8999 15.0762C87.3406 15.0762 83.0529 16.242 79.3235 18.2909C76.6485 12.4699 70.7545 8.427 63.9131 8.427C61.0272 8.427 58.3099 9.14686 55.932 10.4154C51.5189 4.18505 44.239 0.116699 36.0063 0.116699C23.4554 0.116699 13.1203 9.57289 11.776 21.7278C11.6786 22.6117 11.6275 23.5099 11.6275 24.4201C11.6275 27.7033 12.2808 30.8352 13.4638 33.6916C5.77579 35.2913 0 42.0871 0 50.2269Z" fill="white" fill-opacity="0.5"/>
<path d="M36.0059 0.616699C44.07 0.616699 51.2013 4.60127 55.5244 10.7046L55.7783 11.064L56.167 10.8569C58.4742 9.62611 61.1113 8.92725 63.9131 8.92725C70.5525 8.92725 76.2729 12.85 78.8691 18.4995L79.0938 18.9878L79.5645 18.729C83.2218 16.7197 87.4274 15.5767 91.9004 15.5767C106.04 15.5769 117.5 27.0038 117.5 41.0962C117.5 55.1895 106.04 66.6164 91.9004 66.6167H16.9404C7.85951 66.6165 0.500056 59.2781 0.5 50.2271C0.5 42.3299 6.10374 35.734 13.5654 34.1812L14.1572 34.0581L13.9258 33.5005C12.7675 30.7037 12.128 27.6366 12.1279 24.4204C12.1279 23.7519 12.1556 23.0896 12.21 22.4351L12.2734 21.7827C13.5899 9.87969 23.7117 0.616897 36.0059 0.616699Z" stroke="black" stroke-opacity="0.5" stroke-miterlimit="10"/>
</svg>
