<svg width="70" height="71" viewBox="0 0 70 71" fill="none" xmlns="http://www.w3.org/2000/svg">
<circle cx="35" cy="35.1167" r="34.5" fill="#1A47A9" stroke="#335CB3"/>
<g clip-path="url(#clip0_325_607)">
<path d="M38.4542 31.4961V36.5327C38.4542 36.6628 38.3551 36.7619 38.225 36.7619H37.4196C37.3391 36.7619 37.2709 36.7185 37.2337 36.669L34.923 33.5529V36.5389C34.923 36.669 34.8239 36.7681 34.6938 36.7681H33.8884C33.7583 36.7681 33.6592 36.669 33.6592 36.5389V31.5023C33.6592 31.3722 33.7583 31.2731 33.8884 31.2731H34.6876C34.7557 31.2731 34.8363 31.3103 34.8734 31.3722L37.1842 34.4883V31.5023C37.1842 31.3722 37.2833 31.2731 37.4134 31.2731H38.2188C38.3489 31.2669 38.4542 31.3722 38.4542 31.4899V31.4961ZM32.6494 31.2669H31.844C31.7139 31.2669 31.6148 31.366 31.6148 31.4961V36.5327C31.6148 36.6628 31.7139 36.7619 31.844 36.7619H32.6494C32.7795 36.7619 32.8786 36.6628 32.8786 36.5327V31.4961C32.8786 31.3784 32.7795 31.2669 32.6494 31.2669ZM30.7041 35.4857H28.4987V31.4961C28.4987 31.366 28.3996 31.2669 28.2695 31.2669H27.4641C27.334 31.2669 27.2349 31.366 27.2349 31.4961V36.5327C27.2349 36.5946 27.2535 36.6442 27.2969 36.6876C27.3402 36.7247 27.3898 36.7495 27.4517 36.7495H30.6856C30.8157 36.7495 30.9148 36.6504 30.9148 36.5203V35.7149C30.9148 35.5972 30.8157 35.4857 30.6979 35.4857H30.7041ZM42.704 31.2669H39.464C39.3463 31.2669 39.2348 31.366 39.2348 31.4961V36.5327C39.2348 36.6504 39.3339 36.7619 39.464 36.7619H42.6978C42.8279 36.7619 42.927 36.6628 42.927 36.5327V35.7211C42.927 35.591 42.8279 35.4919 42.6978 35.4919H40.4985V34.6494H42.6978C42.8279 34.6494 42.927 34.5503 42.927 34.4202V33.6086C42.927 33.4785 42.8279 33.3794 42.6978 33.3794H40.4985V32.5307H42.6978C42.8279 32.5307 42.927 32.4316 42.927 32.3015V31.4961C42.9208 31.3784 42.8217 31.2669 42.6978 31.2669H42.704ZM50.9063 25.0904V45.2863C50.9001 48.4582 48.2981 51.0292 45.1201 51.023H24.9241C21.7523 51.0168 19.1813 48.4086 19.1875 45.2368V25.0408C19.1937 21.869 21.8018 19.298 24.9737 19.3042H45.1696C48.3415 19.3104 50.9125 21.9123 50.9063 25.0904ZM46.5449 33.7697C46.5449 28.603 41.3597 24.3966 34.9973 24.3966C28.635 24.3966 23.4497 28.603 23.4497 33.7697C23.4497 38.3974 27.557 42.2817 33.1078 43.0189C34.4584 43.3101 34.3035 43.8057 33.9999 45.6271C33.9504 45.9182 33.7645 46.7669 34.9973 46.2528C36.2301 45.7386 41.6446 42.3375 44.0731 39.5497C45.7458 37.7098 46.5449 35.845 46.5449 33.7821V33.7697Z" fill="white"/>
</g>
<defs>
<clipPath id="clip0_325_607">
<rect width="31.7188" height="31.7188" fill="white" transform="translate(19.1875 19.3042)"/>
</clipPath>
</defs>
</svg>
