<svg width="80" height="80" viewBox="0 0 80 80" fill="none" xmlns="http://www.w3.org/2000/svg">
<circle cx="40" cy="40" r="40" fill="#F2F5FA"/>
<g clip-path="url(#clip0_13_1458)">
<path d="M41.2353 53.2177V41.2354H38.7647V53.2177C38.7647 49.3289 35.6123 46.1765 31.7235 46.1765H26.4118V46.5471C26.4118 50.4359 29.5642 53.5883 33.4529 53.5883H38.7647V58.5295H36.2941V61.0001H43.7059V58.5295H41.2353V53.5883H46.5471C50.4358 53.5883 53.5882 50.4359 53.5882 46.5471V46.1765H48.2765C44.3877 46.1765 41.2353 49.3289 41.2353 53.2177ZM32.1765 41.2354V39.3946C32.1765 33.4807 32.9123 27.8836 34.2482 23.6342C34.7959 21.8925 35.4176 20.4584 36.1022 19.346C31.9675 20.0875 28.1763 22.0064 25.1636 24.9324C21.1889 28.7925 19 33.9974 19 39.5883V41.2354H21.4706C21.4706 38.2837 23.8718 35.8824 26.8235 35.8824C29.7751 35.8824 32.1765 38.2837 32.1765 41.2354ZM54.8364 24.9323C51.8237 22.0064 48.0325 20.0874 43.8978 19.3459C44.5824 20.4583 45.204 21.8924 45.7518 23.6341C47.0877 27.8836 47.8235 33.4807 47.8235 39.3946V41.2354C47.8235 38.2837 50.2249 35.8824 53.1765 35.8824C56.1281 35.8824 58.5294 38.2837 58.5294 41.2354H61V39.5883C61 33.9974 58.8111 28.7925 54.8364 24.9323Z" fill="#3978E9"/>
<path d="M34.647 41.2353C34.647 38.2836 37.0482 35.8824 39.9999 35.8824C42.9515 35.8824 45.3529 38.2836 45.3529 41.2353V39.3945C45.3529 33.7251 44.6575 28.3912 43.3948 24.3752C42.2337 20.6821 40.8211 19 39.9999 19C39.1788 19 37.7661 20.6821 36.605 24.3752C35.3423 28.3911 34.647 33.7251 34.647 39.3945V41.2353Z" fill="#3978E9"/>
</g>
<defs>
<clipPath id="clip0_13_1458">
<rect width="42" height="42" fill="white" transform="translate(19 19)"/>
</clipPath>
</defs>
</svg>
