<svg width="60" height="60" viewBox="0 0 60 60" fill="none" xmlns="http://www.w3.org/2000/svg">
<path d="M60 30.0011C60 45.1529 48.7685 57.6793 34.1779 59.712C32.8136 59.9012 31.4179 60 30.0011 60C28.3656 60 26.7596 59.8697 25.1957 59.6174C10.9099 57.3177 0 44.9322 0 30.0011C0 13.4324 13.4324 0 29.999 0C46.5655 0 60 13.4324 60 30.0011Z" fill="#1877F2"/>
<path d="M34.1752 24.0888V30.6242H42.2598L40.9796 39.4278H34.1752V59.7109C32.8109 59.9001 31.4151 59.9989 29.9983 59.9989C28.3629 59.9989 26.7569 59.8686 25.1929 59.6163V39.4278H17.7368V30.6242H25.1929V22.6279C25.1929 17.667 29.2142 13.6436 34.1773 13.6436V13.6478C34.192 13.6478 34.2046 13.6436 34.2193 13.6436H42.2619V21.2573H37.0067C35.4448 21.2573 34.1773 22.5249 34.1773 24.0867L34.1752 24.0888Z" fill="white"/>
</svg>
