<svg width="60" height="60" viewBox="0 0 60 60" fill="none" xmlns="http://www.w3.org/2000/svg">
<path d="M59.9958 30.0011C59.9958 45.1529 48.7647 57.6793 34.1746 59.712C32.8104 59.9012 31.4147 60 29.9979 60C28.3625 60 26.7566 59.8697 25.1927 59.6174C10.9095 57.3177 0 44.9322 0 30.0011C0 13.4324 13.4319 0 30 0C46.5681 0 60 13.4324 60 30.0011H59.9958Z" fill="#1C1C1B"/>
<path d="M12.168 13.2305L26.0035 31.7289L12.0818 46.7693H15.2159L27.4055 33.6018L37.2535 46.7693H47.917L33.3038 27.2304L46.2627 13.2305H43.1286L31.9038 25.3574L22.8336 13.2305H12.1701H12.168ZM16.7756 15.5386H21.6733L43.3052 44.4612H38.4075L16.7756 15.5386Z" fill="white"/>
</svg>
