<svg width="31" height="37" viewBox="0 0 31 37" fill="none" xmlns="http://www.w3.org/2000/svg">
<path d="M25.9646 19.6868C25.9223 15.0134 29.8156 12.7398 29.9936 12.634C27.7887 9.43965 24.3711 9.0032 23.1701 8.9684C20.2998 8.66825 17.5155 10.675 16.0533 10.675C14.562 10.675 12.3103 8.9974 9.88357 9.0467C6.76075 9.09455 3.83932 10.8911 2.23705 13.6809C-1.06963 19.3692 1.39652 27.7285 4.56457 32.3264C6.14932 34.5783 8.00112 37.0926 10.425 37.0041C12.7963 36.907 13.682 35.5019 16.5436 35.5019C19.379 35.5019 20.2107 37.0041 22.6827 36.9476C25.2277 36.907 26.8299 34.6856 28.3592 32.4134C30.1906 29.8324 30.9261 27.2906 30.9553 27.1601C30.8954 27.1398 26.0128 25.2881 25.9646 19.6868Z" fill="white"/>
<path d="M21.295 5.9437C22.5704 4.35885 23.443 2.2027 23.2008 0.0146484C21.3548 0.0958484 19.0463 1.2834 17.7169 2.83345C16.5407 4.19935 15.49 6.43815 15.7615 8.54355C17.8351 8.69725 19.9641 7.5039 21.295 5.9437Z" fill="white"/>
</svg>
