<svg width="202" height="58" viewBox="0 0 202 58" fill="none" xmlns="http://www.w3.org/2000/svg">
<path d="M194.298 58H8.40099C4.3131 58 0.965088 54.7357 0.965088 50.75V7.25C0.965088 3.26431 4.3131 -1.90735e-06 8.40099 -1.90735e-06H194.298C198.386 -1.90735e-06 201.734 3.26431 201.734 7.25V50.75C201.734 54.7357 198.386 58 194.298 58Z" fill="black"/>
<path d="M194.298 1.16181C197.741 1.16181 200.543 3.89325 200.543 7.25V50.75C200.543 54.1067 197.741 56.8382 194.298 56.8382H8.40099C4.95816 56.8382 2.15669 54.1067 2.15669 50.75V7.25C2.15669 3.89325 4.95816 1.16181 8.40099 1.16181H194.298ZM194.298 -1.90735e-06H8.40099C4.3131 -1.90735e-06 0.965088 3.26431 0.965088 7.25V50.75C0.965088 54.7357 4.3131 58 8.40099 58H194.298C198.386 58 201.734 54.7357 201.734 50.75V7.25C201.734 3.26431 198.386 -1.90735e-06 194.298 -1.90735e-06Z" fill="#A6A6A6"/>
<path d="M16.4834 10.9299C16.0465 11.3757 15.7937 12.0699 15.7937 12.9689V45.0357C15.7937 45.9347 16.0465 46.6289 16.4834 47.0747L16.5912 47.1726L35.0211 29.2107V28.7866L16.5912 10.8247L16.4834 10.9299Z" fill="url(#paint0_linear_13_1517)"/>
<path d="M41.1602 35.1992L35.0237 29.2089V28.7848L41.1676 22.7945L41.3052 22.8724L48.5812 26.9088C50.6577 28.0543 50.6577 29.9393 48.5812 31.0921L41.3052 35.1213L41.1602 35.1992Z" fill="url(#paint1_linear_13_1517)"/>
<path d="M41.3011 35.1229L35.0196 28.9984L16.4819 47.0745C17.1716 47.7814 18.2963 47.8666 19.5753 47.1597L41.3011 35.1229Z" fill="url(#paint2_linear_13_1517)"/>
<path d="M41.3011 22.8721L19.5753 10.8353C18.2963 10.1357 17.1716 10.2209 16.4819 10.9278L35.0196 28.9966L41.3011 22.8721Z" fill="url(#paint3_linear_13_1517)"/>
<path d="M71.4826 14.8545C71.4826 16.0653 71.1108 17.0349 70.3784 17.7581C69.5363 18.6154 68.4395 19.0468 67.0955 19.0468C65.8109 19.0468 64.7141 18.6082 63.8144 17.7436C62.9128 16.8664 62.4629 15.7898 62.4629 14.5011C62.4629 13.2124 62.9128 12.1358 63.8144 11.2658C64.7141 10.3939 65.8109 9.95532 67.0955 9.95532C67.7349 9.95532 68.3447 10.084 68.9265 10.3233C69.5065 10.5643 69.9787 10.8906 70.3208 11.2929L69.5437 12.0578C68.947 11.3709 68.1346 11.0319 67.0955 11.0319C66.1585 11.0319 65.3462 11.3509 64.6565 11.9944C63.9742 12.6396 63.6322 13.4752 63.6322 14.5011C63.6322 15.5269 63.9742 16.3698 64.6565 17.015C65.3462 17.6512 66.1585 17.9774 67.0955 17.9774C68.09 17.9774 68.9265 17.6512 69.5865 17.0078C70.0215 16.5818 70.2687 15.9946 70.3338 15.2442H67.0955V14.1966H71.4157C71.4678 14.4231 71.4826 14.6424 71.4826 14.8545Z" fill="white" stroke="white" stroke-width="0.16" stroke-miterlimit="10"/>
<path d="M78.3376 11.2238H74.2795V13.9788H77.9379V15.0264H74.2795V17.7814H78.3376V18.849H73.1306V10.1562H78.3376V11.2238Z" fill="white" stroke="white" stroke-width="0.16" stroke-miterlimit="10"/>
<path d="M83.1722 18.849H82.0233V11.2238H79.5342V10.1562H85.6632V11.2238H83.1722V18.849Z" fill="white" stroke="white" stroke-width="0.16" stroke-miterlimit="10"/>
<path d="M90.1013 18.849V10.1562H91.2483V18.849H90.1013Z" fill="white" stroke="white" stroke-width="0.16" stroke-miterlimit="10"/>
<path d="M96.3299 18.849H95.1903V11.2238H92.6919V10.1562H98.8284V11.2238H96.3299V18.849Z" fill="white" stroke="white" stroke-width="0.16" stroke-miterlimit="10"/>
<path d="M110.435 17.7291C109.556 18.6082 108.467 19.0468 107.167 19.0468C105.86 19.0468 104.771 18.6082 103.892 17.7291C103.014 16.8519 102.577 15.7753 102.577 14.5011C102.577 13.2269 103.014 12.1503 103.892 11.273C104.771 10.3939 105.86 9.95532 107.167 9.95532C108.459 9.95532 109.549 10.3939 110.428 11.2803C111.313 12.1648 111.75 13.2341 111.75 14.5011C111.75 15.7753 111.313 16.8519 110.435 17.7291ZM104.741 17.0005C105.403 17.6512 106.208 17.9774 107.167 17.9774C108.119 17.9774 108.931 17.6512 109.586 17.0005C110.246 16.3498 110.58 15.5143 110.58 14.5011C110.58 13.4879 110.246 12.6523 109.586 12.0016C108.931 11.3509 108.119 11.0247 107.167 11.0247C106.208 11.0247 105.403 11.3509 104.741 12.0016C104.081 12.6523 103.747 13.4879 103.747 14.5011C103.747 15.5143 104.081 16.3498 104.741 17.0005Z" fill="white" stroke="white" stroke-width="0.16" stroke-miterlimit="10"/>
<path d="M113.36 18.849V10.1562H114.755L119.09 16.9169H119.14L119.09 15.2457V10.1562H120.237V18.849H119.04L114.5 11.7549H114.45L114.5 13.4332V18.849H113.36Z" fill="white" stroke="white" stroke-width="0.16" stroke-miterlimit="10"/>
<path d="M102.295 31.5431C98.8024 31.5431 95.9488 34.1349 95.9488 37.711C95.9488 41.2581 98.8024 43.8771 102.295 43.8771C105.796 43.8771 108.649 41.2581 108.649 37.711C108.649 34.1349 105.796 31.5431 102.295 31.5431ZM102.295 41.4484C100.379 41.4484 98.7298 39.9059 98.7298 37.711C98.7298 35.4871 100.379 33.9718 102.295 33.9718C104.212 33.9718 105.868 35.4871 105.868 37.711C105.868 39.9059 104.212 41.4484 102.295 41.4484ZM88.4479 31.5431C84.9474 31.5431 82.1013 34.1349 82.1013 37.711C82.1013 41.2581 84.9474 43.8771 88.4479 43.8771C91.9464 43.8771 94.7944 41.2581 94.7944 37.711C94.7944 34.1349 91.9464 31.5431 88.4479 31.5431ZM88.4479 41.4484C86.5294 41.4484 84.8749 39.9059 84.8749 37.711C84.8749 35.4871 86.5294 33.9718 88.4479 33.9718C90.3645 33.9718 92.0134 35.4871 92.0134 37.711C92.0134 39.9059 90.3645 41.4484 88.4479 41.4484ZM71.9699 33.4335V36.0544H78.389C78.2012 37.5189 77.6993 38.5955 76.9297 39.3459C75.9927 40.2521 74.5334 41.2581 71.9699 41.2581C68.0196 41.2581 64.9263 38.1496 64.9263 34.2981C64.9263 30.4465 68.0196 27.3381 71.9699 27.3381C74.1059 27.3381 75.66 28.1519 76.807 29.2068L78.7013 27.3598C77.097 25.8663 74.9629 24.719 71.9699 24.719C66.5529 24.719 62.0002 29.0164 62.0002 34.2981C62.0002 39.5797 66.5529 43.8771 71.9699 43.8771C74.8978 43.8771 77.097 42.9419 78.8258 41.1874C80.5974 39.4601 81.1495 37.0313 81.1495 35.0702C81.1495 34.4612 81.0975 33.9011 81.0045 33.4335H71.9699ZM139.35 35.4653C138.828 34.086 137.216 31.5431 133.933 31.5431C130.68 31.5431 127.972 34.0425 127.972 37.711C127.972 41.1656 130.652 43.8771 134.246 43.8771C137.151 43.8771 138.828 42.1498 139.518 41.1439L137.361 39.7428C136.642 40.7687 135.662 41.4484 134.246 41.4484C132.838 41.4484 131.829 40.8194 131.182 39.5797L139.642 36.1667L139.35 35.4653ZM130.725 37.5189C130.652 35.1409 132.619 33.9229 134.028 33.9229C135.132 33.9229 136.069 34.4612 136.382 35.2315L130.725 37.5189ZM123.848 43.5019H126.629V25.3769H123.848V43.5019ZM119.294 32.9169H119.201C118.576 32.1956 117.385 31.5431 115.875 31.5431C112.707 31.5431 109.811 34.2546 109.811 37.7309C109.811 41.1874 112.707 43.8771 115.875 43.8771C117.385 43.8771 118.576 43.2192 119.201 42.4761H119.294V43.3606C119.294 45.7186 118.002 46.9856 115.918 46.9856C114.219 46.9856 113.165 45.7893 112.73 44.7834L110.311 45.7676C111.008 47.4024 112.854 49.4143 115.918 49.4143C119.179 49.4143 121.93 47.5438 121.93 42.9926V31.9182H119.294V32.9169ZM116.113 41.4484C114.197 41.4484 112.592 39.8842 112.592 37.7309C112.592 35.5577 114.197 33.9718 116.113 33.9718C118.002 33.9718 119.491 35.5577 119.491 37.7309C119.491 39.8842 118.002 41.4484 116.113 41.4484ZM152.371 25.3769H145.719V43.5019H148.493V36.6344H152.371C155.451 36.6344 158.472 34.4612 158.472 31.0048C158.472 27.5501 155.443 25.3769 152.371 25.3769ZM152.443 34.1132H148.493V27.8981H152.443C154.514 27.8981 155.696 29.5747 155.696 31.0048C155.696 32.4076 154.514 34.1132 152.443 34.1132ZM169.588 31.5086C167.584 31.5086 165.5 32.3714 164.643 34.2836L167.105 35.2895C167.635 34.2836 168.609 33.9573 169.639 33.9573C171.077 33.9573 172.537 34.8001 172.559 36.2882V36.4785C172.057 36.1957 170.983 35.7771 169.661 35.7771C167.01 35.7771 164.309 37.1999 164.309 39.8552C164.309 42.2839 166.48 43.8481 168.921 43.8481C170.787 43.8481 171.817 43.0271 172.464 42.0719H172.559V43.4729H175.238V36.5202C175.238 33.3066 172.777 31.5086 169.588 31.5086ZM169.254 41.4411C168.347 41.4411 167.082 41.0025 167.082 39.9059C167.082 38.5031 168.659 37.9647 170.023 37.9647C171.245 37.9647 171.817 38.2276 172.559 38.5737C172.341 40.2521 170.86 41.4411 169.254 41.4411ZM184.997 31.9056L181.809 39.7627H181.714L178.418 31.9056H175.427L180.38 42.8857L177.554 48.9956H180.452L188.083 31.9056H184.997ZM159.996 43.5019H162.777V25.3769H159.996V43.5019Z" fill="white"/>
<defs>
<linearGradient id="paint0_linear_13_1517" x1="33.3847" y1="45.3696" x2="9.05803" y2="20.4192" gradientUnits="userSpaceOnUse">
<stop stop-color="#00A0FF"/>
<stop offset="0.0066" stop-color="#00A1FF"/>
<stop offset="0.2601" stop-color="#00BEFF"/>
<stop offset="0.5122" stop-color="#00D2FF"/>
<stop offset="0.7604" stop-color="#00DFFF"/>
<stop offset="1" stop-color="#00E3FF"/>
</linearGradient>
<linearGradient id="paint1_linear_13_1517" x1="51.2851" y1="28.9948" x2="15.3" y2="28.9948" gradientUnits="userSpaceOnUse">
<stop stop-color="#FFE000"/>
<stop offset="0.4087" stop-color="#FFBD00"/>
<stop offset="0.7754" stop-color="#FFA500"/>
<stop offset="1" stop-color="#FF9C00"/>
</linearGradient>
<linearGradient id="paint2_linear_13_1517" x1="37.8854" y1="25.6691" x2="4.89646" y2="-8.16574" gradientUnits="userSpaceOnUse">
<stop stop-color="#FF3A44"/>
<stop offset="1" stop-color="#C31162"/>
</linearGradient>
<linearGradient id="paint3_linear_13_1517" x1="11.8156" y1="57.7411" x2="26.5467" y2="42.6325" gradientUnits="userSpaceOnUse">
<stop stop-color="#32A071"/>
<stop offset="0.0685" stop-color="#2DA771"/>
<stop offset="0.4762" stop-color="#15CF74"/>
<stop offset="0.8009" stop-color="#06E775"/>
<stop offset="1" stop-color="#00F076"/>
</linearGradient>
</defs>
</svg>
